  0
SECTION
  2
HEADER
  9
$ACADVER
  1
AC1018
  9
$ACADMAINTVER
 70
     0
  9
$DWGCODEPAGE
  3
ANSI_1252
  9
$INSBASE
 10
0.0
 20
0.0
 30
0.0
  9
$EXTMIN
 10
1.000000000000000E+20
 20
1.000000000000000E+20
 30
1.000000000000000E+20
  9
$EXTMAX
 10
-1.000000000000000E+20
 20
-1.000000000000000E+20
 30
-1.000000000000000E+20
  9
$LIMMIN
 10
0.0
 20
0.0
  9
$LIMMAX
 10
12.0
 20
9.0
  9
$ORTHOMODE
 70
     0
  9
$REGENMODE
 70
     1
  9
$FILLMODE
 70
     1
  9
$QTEXTMODE
 70
     0
  9
$MIRRTEXT
 70
     1
  9
$LTSCALE
 40
1.0
  9
$ATTMODE
 70
     1
  9
$TEXTSIZE
 40
0.2
  9
$TRACEWID
 40
0.05
  9
$TEXTSTYLE
  7
Standard
  9
$CLAYER
  8
0
  9
$CELTYPE
  6
ByLayer
  9
$CECOLOR
 62
   256
  9
$CELTSCALE
 40
1.0
  9
$DISPSILH
 70
     0
  9
$DIMSCALE
 40
1.0
  9
$DIMASZ
 40
0.18
  9
$DIMEXO
 40
0.0625
  9
$DIMDLI
 40
0.38
  9
$DIMRND
 40
0.0
  9
$DIMDLE
 40
0.0
  9
$DIMEXE
 40
0.18
  9
$DIMTP
 40
0.0
  9
$DIMTM
 40
0.0
  9
$DIMTXT
 40
0.18
  9
$DIMCEN
 40
0.09
  9
$DIMTSZ
 40
0.0
  9
$DIMTOL
 70
     0
  9
$DIMLIM
 70
     0
  9
$DIMTIH
 70
     1
  9
$DIMTOH
 70
     1
  9
$DIMSE1
 70
     0
  9
$DIMSE2
 70
     0
  9
$DIMTAD
 70
     0
  9
$DIMZIN
 70
     0
  9
$DIMBLK
  1

  9
$DIMASO
 70
     1
  9
$DIMSHO
 70
     1
  9
$DIMPOST
  1

  9
$DIMAPOST
  1

  9
$DIMALT
 70
     0
  9
$DIMALTD
 70
     2
  9
$DIMALTF
 40
25.4
  9
$DIMLFAC
 40
1.0
  9
$DIMTOFL
 70
     0
  9
$DIMTVP
 40
0.0
  9
$DIMTIX
 70
     0
  9
$DIMSOXD
 70
     0
  9
$DIMSAH
 70
     0
  9
$DIMBLK1
  1

  9
$DIMBLK2
  1

  9
$DIMSTYLE
  2
Standard
  9
$DIMCLRD
 70
     0
  9
$DIMCLRE
 70
     0
  9
$DIMCLRT
 70
     0
  9
$DIMTFAC
 40
1.0
  9
$DIMGAP
 40
0.09
  9
$DIMJUST
 70
     0
  9
$DIMSD1
 70
     0
  9
$DIMSD2
 70
     0
  9
$DIMTOLJ
 70
     1
  9
$DIMTZIN
 70
     0
  9
$DIMALTZ
 70
     0
  9
$DIMALTTZ
 70
     0
  9
$DIMUPT
 70
     0
  9
$DIMDEC
 70
     4
  9
$DIMTDEC
 70
     4
  9
$DIMALTU
 70
     2
  9
$DIMALTTD
 70
     2
  9
$DIMTXSTY
  7
Standard
  9
$DIMAUNIT
 70
     0
  9
$DIMADEC
 70
     0
  9
$DIMALTRND
 40
0.0
  9
$DIMAZIN
 70
     0
  9
$DIMDSEP
 70
    46
  9
$DIMATFIT
 70
     3
  9
$DIMFRAC
 70
     0
  9
$DIMLDRBLK
  1

  9
$DIMLUNIT
 70
     2
  9
$DIMLWD
 70
    -2
  9
$DIMLWE
 70
    -2
  9
$DIMTMOVE
 70
     0
  9
$LUNITS
 70
     2
  9
$LUPREC
 70
     4
  9
$SKETCHINC
 40
0.1
  9
$FILLETRAD
 40
0.5
  9
$AUNITS
 70
     0
  9
$AUPREC
 70
     0
  9
$MENU
  1
.
  9
$ELEVATION
 40
0.0
  9
$PELEVATION
 40
0.0
  9
$THICKNESS
 40
0.0
  9
$LIMCHECK
 70
     0
  9
$CHAMFERA
 40
0.5
  9
$CHAMFERB
 40
0.5
  9
$CHAMFERC
 40
1.0
  9
$CHAMFERD
 40
0.0
  9
$SKPOLY
 70
     0
  9
$TDCREATE
 40
2458888.850724525
  9
$TDUCREATE
 40
2458889.100724525
  9
$TDUPDATE
 40
2458888.850724537
  9
$TDUUPDATE
 40
2458889.100724537
  9
$TDINDWG
 40
0.0000000116
  9
$TDUSRTIMER
 40
0.0000000116
  9
$USRTIMER
 70
     1
  9
$ANGBASE
 50
0.0
  9
$ANGDIR
 70
     0
  9
$PDMODE
 70
     0
  9
$PDSIZE
 40
0.0
  9
$PLINEWID
 40
0.0
  9
$SPLFRAME
 70
     0
  9
$SPLINETYPE
 70
     6
  9
$SPLINESEGS
 70
     8
  9
$HANDSEED
  5
72
  9
$SURFTAB1
 70
     6
  9
$SURFTAB2
 70
     6
  9
$SURFTYPE
 70
     6
  9
$SURFU
 70
     6
  9
$SURFV
 70
     6
  9
$UCSBASE
  2

  9
$UCSNAME
  2

  9
$UCSORG
 10
0.0
 20
0.0
 30
0.0
  9
$UCSXDIR
 10
1.0
 20
0.0
 30
0.0
  9
$UCSYDIR
 10
0.0
 20
1.0
 30
0.0
  9
$UCSORTHOREF
  2

  9
$UCSORTHOVIEW
 70
     0
  9
$UCSORGTOP
 10
0.0
 20
0.0
 30
0.0
  9
$UCSORGBOTTOM
 10
0.0
 20
0.0
 30
0.0
  9
$UCSORGLEFT
 10
0.0
 20
0.0
 30
0.0
  9
$UCSORGRIGHT
 10
0.0
 20
0.0
 30
0.0
  9
$UCSORGFRONT
 10
0.0
 20
0.0
 30
0.0
  9
$UCSORGBACK
 10
0.0
 20
0.0
 30
0.0
  9
$PUCSBASE
  2

  9
$PUCSNAME
  2

  9
$PUCSORG
 10
0.0
 20
0.0
 30
0.0
  9
$PUCSXDIR
 10
1.0
 20
0.0
 30
0.0
  9
$PUCSYDIR
 10
0.0
 20
1.0
 30
0.0
  9
$PUCSORTHOREF
  2

  9
$PUCSORTHOVIEW
 70
     0
  9
$PUCSORGTOP
 10
0.0
 20
0.0
 30
0.0
  9
$PUCSORGBOTTOM
 10
0.0
 20
0.0
 30
0.0
  9
$PUCSORGLEFT
 10
0.0
 20
0.0
 30
0.0
  9
$PUCSORGRIGHT
 10
0.0
 20
0.0
 30
0.0
  9
$PUCSORGFRONT
 10
0.0
 20
0.0
 30
0.0
  9
$PUCSORGBACK
 10
0.0
 20
0.0
 30
0.0
  9
$USERI1
 70
     0
  9
$USERI2
 70
     0
  9
$USERI3
 70
     0
  9
$USERI4
 70
     0
  9
$USERI5
 70
     0
  9
$USERR1
 40
0.0
  9
$USERR2
 40
0.0
  9
$USERR3
 40
0.0
  9
$USERR4
 40
0.0
  9
$USERR5
 40
0.0
  9
$WORLDVIEW
 70
     1
  9
$SHADEDGE
 70
     3
  9
$SHADEDIF
 70
    70
  9
$TILEMODE
 70
     1
  9
$MAXACTVP
 70
    64
  9
$PINSBASE
 10
0.0
 20
0.0
 30
0.0
  9
$PLIMCHECK
 70
     0
  9
$PEXTMIN
 10
1.000000000000000E+20
 20
1.000000000000000E+20
 30
1.000000000000000E+20
  9
$PEXTMAX
 10
-1.000000000000000E+20
 20
-1.000000000000000E+20
 30
-1.000000000000000E+20
  9
$PLIMMIN
 10
0.0
 20
0.0
  9
$PLIMMAX
 10
12.0
 20
9.0
  9
$UNITMODE
 70
     0
  9
$VISRETAIN
 70
     1
  9
$PLINEGEN
 70
     0
  9
$PSLTSCALE
 70
     1
  9
$TREEDEPTH
 70
  3020
  9
$CMLSTYLE
  2
Standard
  9
$CMLJUST
 70
     0
  9
$CMLSCALE
 40
1.0
  9
$PROXYGRAPHICS
 70
     1
  9
$MEASUREMENT
 70
     0
  9
$CELWEIGHT
370
    -1
  9
$ENDCAPS
280
     0
  9
$JOINSTYLE
280
     0
  9
$LWDISPLAY
290
     1
  9
$INSUNITS
 70
     1
  9
$HYPERLINKBASE
  1

  9
$STYLESHEET
  1

  9
$XEDIT
290
     1
  9
$CEPSNTYPE
380
     0
  9
$PSTYLEMODE
290
     1
  9
$FINGERPRINTGUID
  2
{C872B4D0-19D0-4BDF-8DC9-B2CD88F7F34F}
  9
$VERSIONGUID
  2
{FAEB1C32-E019-11D5-929B-00C0DF256EC4}
  9
$EXTNAMES
290
     1
  9
$PSVPSCALE
 40
0.0
  9
$OLESTARTUP
290
     0
  9
$SORTENTS
280
   127
  9
$INDEXCTL
280
     0
  9
$HIDETEXT
280
     1
  9
$XCLIPFRAME
290
     0
  9
$HALOGAP
280
     0
  9
$OBSCOLOR
 70
   257
  9
$OBSLTYPE
280
     0
  9
$INTERSECTIONDISPLAY
280
     0
  9
$INTERSECTIONCOLOR
 70
   257
  9
$DIMASSOC
280
     2
  9
$PROJECTNAME
  1

  0
ENDSEC
  0
SECTION
  2
CLASSES
  0
CLASS
  1
ACDBDICTIONARYWDFLT
  2
AcDbDictionaryWithDefault
  3
ObjectDBX Classes
 90
        0
 91
        3
280
     0
281
     0
  0
CLASS
  1
VISUALSTYLE
  2
AcDbVisualStyle
  3
ObjectDBX Classes
 90
     4095
 91
        3
280
     0
281
     0
  0
ENDSEC
  0
SECTION
  2
TABLES
  0
TABLE
  2
VPORT
  5
8
330
0
100
AcDbSymbolTable
 70
     1
  0
VPORT
  5
29
330
8
100
AcDbSymbolTableRecord
100
AcDbViewportTableRecord
  2
*Active
 70
     0
 10
0.0
 20
0.0
 11
1.0
 21
1.0
 12
0.0
 22
0.0
 13
0.0
 23
0.0
 14
0.5
 24
0.5
 15
0.5
 25
0.5
 16
0.0
 26
0.0
 36
1.0
 17
12.10860309128785
 27
18.22474007267408
 37
0.0
 40
6.750675838414431
 41
2.234568682585463
 42
50.0
 43
0.0
 44
0.0
 50
0.0
 51
0.0
 71
     0
 72
   100
 73
     1
 74
     3
 75
     0
 76
     0
 77
     0
 78
     0
281
     0
 65
     1
110
0.0
120
0.0
130
0.0
111
1.0
121
0.0
131
0.0
112
0.0
122
1.0
132
0.0
 79
     0
146
0.0
  0
ENDTAB
  0
TABLE
  2
LTYPE
  5
5
330
0
100
AcDbSymbolTable
 70
     1
  0
LTYPE
  5
14
330
5
100
AcDbSymbolTableRecord
100
AcDbLinetypeTableRecord
  2
ByBlock
 70
     0
  3

 72
    65
 73
     0
 40
0.0
  0
LTYPE
  5
15
330
5
100
AcDbSymbolTableRecord
100
AcDbLinetypeTableRecord
  2
ByLayer
 70
     0
  3

 72
    65
 73
     0
 40
0.0
  0
LTYPE
  5
16
330
5
100
AcDbSymbolTableRecord
100
AcDbLinetypeTableRecord
  2
Continuous
 70
     0
  3
Solid line
 72
    65
 73
     0
 40
0.0
  0
ENDTAB
  0
TABLE
  2
LAYER
  5
2
330
0
100
AcDbSymbolTable
 70
     2
  0
LAYER
  5
10
330
2
100
AcDbSymbolTableRecord
100
AcDbLayerTableRecord
  2
0
 70
     0
 62
     7
  6
Continuous
370
    -3
390
F
  0
LAYER
  5
3B
330
2
100
AcDbSymbolTableRecord
100
AcDbLayerTableRecord
  2
Layer 108
 70
     0
 62
     7
  6
Continuous
370
    -3
390
F
  0
ENDTAB
  0
TABLE
  2
STYLE
  5
3
330
0
100
AcDbSymbolTable
 70
     1
  0
STYLE
  5
11
330
3
100
AcDbSymbolTableRecord
100
AcDbTextStyleTableRecord
  2
Standard
 70
     0
 40
0.0
 41
1.0
 50
0.0
 71
     0
 42
0.2
  3
txt
  4

  0
ENDTAB
  0
TABLE
  2
VIEW
  5
6
330
0
100
AcDbSymbolTable
 70
     0
  0
ENDTAB
  0
TABLE
  2
UCS
  5
7
330
0
100
AcDbSymbolTable
 70
     0
  0
ENDTAB
  0
TABLE
  2
APPID
  5
9
330
0
100
AcDbSymbolTable
 70
     1
  0
APPID
  5
12
330
9
100
AcDbSymbolTableRecord
100
AcDbRegAppTableRecord
  2
ACAD
 70
     0
  0
ENDTAB
  0
TABLE
  2
DIMSTYLE
  5
A
330
0
100
AcDbSymbolTable
 70
     1
100
AcDbDimStyleTable
  0
DIMSTYLE
105
27
330
A
100
AcDbSymbolTableRecord
100
AcDbDimStyleTableRecord
  2
Standard
 70
     0
340
11
  0
ENDTAB
  0
TABLE
  2
BLOCK_RECORD
  5
1
330
0
100
AcDbSymbolTable
 70
     1
  0
BLOCK_RECORD
  5
1F
330
1
100
AcDbSymbolTableRecord
100
AcDbBlockTableRecord
  2
*Model_Space
340
22
  0
BLOCK_RECORD
  5
1B
330
1
100
AcDbSymbolTableRecord
100
AcDbBlockTableRecord
  2
*Paper_Space
340
1E
  0
BLOCK_RECORD
  5
23
330
1
100
AcDbSymbolTableRecord
100
AcDbBlockTableRecord
  2
*Paper_Space0
340
26
  0
ENDTAB
  0
ENDSEC
  0
SECTION
  2
BLOCKS
  0
BLOCK
  5
20
330
1F
100
AcDbEntity
  8
0
100
AcDbBlockBegin
  2
*Model_Space
 70
     0
 71
     0
 10
0.0
 20
0.0
 30
0.0
  3
*Model_Space
  1

  0
ENDBLK
  5
21
330
1F
100
AcDbEntity
  8
0
100
AcDbBlockEnd
  0
BLOCK
  5
1C
330
1B
100
AcDbEntity
 67
     1
  8
0
100
AcDbBlockBegin
  2
*Paper_Space
 70
     0
 71
     0
 10
0.0
 20
0.0
 30
0.0
  3
*Paper_Space
  1

  0
ENDBLK
  5
1D
330
1B
100
AcDbEntity
 67
     1
  8
0
100
AcDbBlockEnd
  0
BLOCK
  5
24
330
23
100
AcDbEntity
  8
0
100
AcDbBlockBegin
  2
*Paper_Space0
 70
     0
 71
     0
 10
0.0
 20
0.0
 30
0.0
  3
*Paper_Space0
  1

  0
ENDBLK
  5
25
330
23
100
AcDbEntity
  8
0
100
AcDbBlockEnd
  0
ENDSEC
  0
SECTION
  2
ENTITIES
  0
SPLINE
  5
3C
330
1F
100
AcDbEntity
  8
Layer 108
370
     0
100
AcDbSpline
210
0.0
220
0.0
230
1.0
 70
    11
 71
     3
 72
   122
 73
   118
 74
     0
 42
0.0000000001
 43
0.0000000001
 40
0.0
 40
0.0
 40
0.0
 40
0.0
 40
1.0
 40
1.0
 40
1.0
 40
2.0
 40
2.0
 40
2.0
 40
3.0
 40
3.0
 40
3.0
 40
4.0
 40
4.0
 40
4.0
 40
5.0
 40
5.0
 40
5.0
 40
6.0
 40
6.0
 40
6.0
 40
7.0
 40
7.0
 40
7.0
 40
8.0
 40
8.0
 40
8.0
 40
9.0
 40
9.0
 40
9.0
 40
10.0
 40
10.0
 40
10.0
 40
11.0
 40
11.0
 40
11.0
 40
12.0
 40
12.0
 40
12.0
 40
13.0
 40
13.0
 40
13.0
 40
14.0
 40
14.0
 40
14.0
 40
15.0
 40
15.0
 40
15.0
 40
16.0
 40
16.0
 40
16.0
 40
17.0
 40
17.0
 40
17.0
 40
18.0
 40
18.0
 40
18.0
 40
19.0
 40
19.0
 40
19.0
 40
20.0
 40
20.0
 40
20.0
 40
21.0
 40
21.0
 40
21.0
 40
22.0
 40
22.0
 40
22.0
 40
23.0
 40
23.0
 40
23.0
 40
24.0
 40
24.0
 40
24.0
 40
25.0
 40
25.0
 40
25.0
 40
26.0
 40
26.0
 40
26.0
 40
27.0
 40
27.0
 40
27.0
 40
28.0
 40
28.0
 40
28.0
 40
29.0
 40
29.0
 40
29.0
 40
30.0
 40
30.0
 40
30.0
 40
31.0
 40
31.0
 40
31.0
 40
32.0
 40
32.0
 40
32.0
 40
33.0
 40
33.0
 40
33.0
 40
34.0
 40
34.0
 40
34.0
 40
35.0
 40
35.0
 40
35.0
 40
36.0
 40
36.0
 40
36.0
 40
37.0
 40
37.0
 40
37.0
 40
38.0
 40
38.0
 40
38.0
 40
39.0
 40
39.0
 40
39.0
 40
39.0
 10
17.47904255944362
 20
18.95112333705675
 30
0.0
 10
17.47904255944362
 20
18.95112333705675
 30
0.0
 10
17.3457010001581
 20
18.95112333705675
 30
0.0
 10
17.3457010001581
 20
18.95112333705675
 30
0.0
 10
17.3457010001581
 20
18.95112333705675
 30
0.0
 10
17.3457010001581
 20
19.64278774716406
 30
0.0
 10
17.3457010001581
 20
19.64278774716406
 30
0.0
 10
17.3457010001581
 20
19.6844544413076
 30
0.0
 10
17.31195531818248
 20
19.71820690497172
 30
0.0
 10
17.27028862403894
 20
19.71820690497172
 30
0.0
 10
17.27028862403894
 20
19.71820690497172
 30
0.0
 10
17.23182288686737
 20
19.71820690497172
 30
0.0
 10
17.23182288686737
 20
19.71820690497172
 30
0.0
 10
17.23182288686737
 20
19.71820690497172
 30
0.0
 10
17.23182288686737
 20
19.88028926011992
 30
0.0
 10
17.23182288686737
 20
19.88028926011992
 30
0.0
 10
17.23182288686737
 20
19.8912620321128
 30
0.0
 10
17.22292531155547
 20
19.9001528257362
 30
0.0
 10
17.21195253956259
 20
19.9001528257362
 30
0.0
 10
17.21195253956259
 20
19.9001528257362
 30
0.0
 10
16.91320559776392
 20
19.9001528257362
 30
0.0
 10
16.91320559776392
 20
19.9001528257362
 30
0.0
 10
16.90223282577104
 20
19.9001528257362
 30
0.0
 10
16.89334881383614
 20
19.8912620321128
 30
0.0
 10
16.89334881383614
 20
19.88028926011992
 30
0.0
 10
16.89334881383614
 20
19.88028926011992
 30
0.0
 10
16.89334881383614
 20
19.81654138822063
 30
0.0
 10
16.89334881383614
 20
19.81654138822063
 30
0.0
 10
16.89334881383614
 20
19.81654138822063
 30
0.0
 10
12.0406980443381
 20
19.81654138822063
 30
0.0
 10
12.0406980443381
 20
19.81654138822063
 30
0.0
 10
12.0406980443381
 20
19.81654138822063
 30
0.0
 10
12.0406980443381
 20
19.88028926011992
 30
0.0
 10
12.0406980443381
 20
19.88028926011992
 30
0.0
 10
12.0406980443381
 20
19.8912620321128
 30
0.0
 10
12.0318140324032
 20
19.9001528257362
 30
0.0
 10
12.02084126041032
 20
19.9001528257362
 30
0.0
 10
12.02084126041032
 20
19.9001528257362
 30
0.0
 10
11.72222995238164
 20
19.9001528257362
 30
0.0
 10
11.72222995238164
 20
19.9001528257362
 30
0.0
 10
11.71125718038876
 20
19.9001528257362
 30
0.0
 10
11.70236638676536
 20
19.8912620321128
 30
0.0
 10
11.70236638676536
 20
19.88028926011992
 30
0.0
 10
11.70236638676536
 20
19.88028926011992
 30
0.0
 10
11.70236638676536
 20
19.81654138822063
 30
0.0
 10
11.70236638676536
 20
19.81654138822063
 30
0.0
 10
11.70236638676536
 20
19.81654138822063
 30
0.0
 10
7.711946274836238
 20
19.81654138822063
 30
0.0
 10
7.711946274836238
 20
19.81654138822063
 30
0.0
 10
7.711946274836238
 20
19.81654138822063
 30
0.0
 10
7.711946274836238
 20
19.71820690497172
 30
0.0
 10
7.711946274836238
 20
19.71820690497172
 30
0.0
 10
7.711946274836238
 20
19.71820690497172
 30
0.0
 10
7.262923897567732
 20
19.71820690497172
 30
0.0
 10
7.262923897567732
 20
19.71820690497172
 30
0.0
 10
7.262923897567732
 20
19.71820690497172
 30
0.0
 10
7.262923897567732
 20
19.81654138822063
 30
0.0
 10
7.262923897567732
 20
19.81654138822063
 30
0.0
 10
7.262923897567732
 20
19.81654138822063
 30
0.0
 10
7.144868264161045
 20
19.81654138822063
 30
0.0
 10
7.144868264161045
 20
19.81654138822063
 30
0.0
 10
7.144868264161045
 20
19.81654138822063
 30
0.0
 10
7.144868264161045
 20
19.87779359875195
 30
0.0
 10
7.144868264161045
 20
19.87779359875195
 30
0.0
 10
7.144868264161045
 20
19.88876637074483
 30
0.0
 10
7.135977470537644
 20
19.89765038267972
 30
0.0
 10
7.125004698544766
 20
19.89765038267972
 30
0.0
 10
7.125004698544766
 20
19.89765038267972
 30
0.0
 10
6.826257756746088
 20
19.89765038267972
 30
0.0
 10
6.826257756746088
 20
19.89765038267972
 30
0.0
 10
6.81528498475321
 20
19.89765038267972
 30
0.0
 10
6.806394191129809
 20
19.88876637074483
 30
0.0
 10
6.806394191129809
 20
19.87779359875195
 30
0.0
 10
6.806394191129809
 20
19.87779359875195
 30
0.0
 10
6.806394191129809
 20
19.71820690497172
 30
0.0
 10
6.806394191129809
 20
19.71820690497172
 30
0.0
 10
6.806394191129809
 20
19.71820690497172
 30
0.0
 10
6.564864355204995
 20
19.71820690497172
 30
0.0
 10
6.564864355204995
 20
19.71820690497172
 30
0.0
 10
6.523197661061459
 20
19.71820690497172
 30
0.0
 10
6.489451979085834
 20
19.6844544413076
 30
0.0
 10
6.489451979085834
 20
19.64278774716406
 30
0.0
 10
6.489451979085834
 20
19.64278774716406
 30
0.0
 10
6.489451979085834
 20
16.71404096989813
 30
0.0
 10
6.489451979085834
 20
16.71404096989813
 30
0.0
 10
6.489451979085834
 20
16.67237427575459
 30
0.0
 10
6.523197661061459
 20
16.63862859377897
 30
0.0
 10
6.564864355204995
 20
16.63862859377897
 30
0.0
 10
6.564864355204995
 20
16.63862859377897
 30
0.0
 10
6.565420453661988
 20
16.63862859377897
 30
0.0
 10
6.565420453661988
 20
16.63862859377897
 30
0.0
 10
6.565420453661988
 20
16.63862859377897
 30
0.0
 10
6.566112185888981
 20
16.63847939663197
 30
0.0
 10
6.566112185888981
 20
16.63847939663197
 30
0.0
 10
6.566112185888981
 20
16.63847939663197
 30
0.0
 10
9.087089597031445
 20
16.23945840867341
 30
0.0
 10
9.087089597031445
 20
16.23945840867341
 30
0.0
 10
9.087089597031445
 20
16.23945840867341
 30
0.0
 10
14.74611703761301
 20
16.23945840867341
 30
0.0
 10
14.74611703761301
 20
16.23945840867341
 30
0.0
 10
14.74611703761301
 20
16.23945840867341
 30
0.0
 10
17.49320272503147
 20
16.64210081829093
 30
0.0
 10
17.49320272503147
 20
16.64210081829093
 30
0.0
 10
17.49320272503147
 20
16.64210081829093
 30
0.0
 10
17.49375882348846
 20
16.64223645206093
 30
0.0
 10
17.49375882348846
 20
16.64223645206093
 30
0.0
 10
17.49375882348846
 20
16.64223645206093
 30
0.0
 10
17.49431492194545
 20
16.64223645206093
 30
0.0
 10
17.49431492194545
 20
16.64223645206093
 30
0.0
 10
17.50528769393833
 20
16.64223645206093
 30
0.0
 10
17.51417170587323
 20
16.65112046399583
 30
0.0
 10
17.51417170587323
 20
16.66209323598871
 30
0.0
 10
17.51417170587323
 20
16.66209323598871
 30
0.0
 10
17.51417170587323
 20
18.91598740893864
 30
0.0
 10
17.51417170587323
 20
18.91598740893864
 30
0.0
 10
17.51417170587323
 20
18.93543050986793
 30
0.0
 10
17.49847887868441
 20
18.95112333705675
 30
0.0
 10
17.47904255944362
 20
18.95112333705675
 30
0.0
  0
SPLINE
  5
3D
330
1F
100
AcDbEntity
  8
Layer 108
370
     0
100
AcDbSpline
210
0.0
220
0.0
230
1.0
 70
    11
 71
     3
 72
    29
 73
    25
 74
     0
 42
0.0000000001
 43
0.0000000001
 40
0.0
 40
0.0
 40
0.0
 40
0.0
 40
1.0
 40
1.0
 40
1.0
 40
2.0
 40
2.0
 40
2.0
 40
3.0
 40
3.0
 40
3.0
 40
4.0
 40
4.0
 40
4.0
 40
5.0
 40
5.0
 40
5.0
 40
6.0
 40
6.0
 40
6.0
 40
7.0
 40
7.0
 40
7.0
 40
8.0
 40
8.0
 40
8.0
 40
8.0
 10
11.26612071063071
 20
18.43473166622999
 30
0.0
 10
11.26612071063071
 20
18.43473166622999
 30
0.0
 10
11.19723231884848
 20
17.94390017935945
 30
0.0
 10
11.19723231884848
 20
17.94390017935945
 30
0.0
 10
11.19500792502051
 20
17.92876345062762
 30
0.0
 10
11.18097661151416
 20
17.91821114332174
 30
0.0
 10
11.16583988278233
 20
17.92028634000271
 30
0.0
 10
11.16583988278233
 20
17.92028634000271
 30
0.0
 10
10.67500839591179
 20
17.98932392893195
 30
0.0
 10
10.67500839591179
 20
17.98932392893195
 30
0.0
 10
10.65972925172146
 20
17.99139912561293
 30
0.0
 10
10.64917694441557
 20
18.00543043911927
 30
0.0
 10
10.65139455655505
 20
18.0207095833096
 30
0.0
 10
10.65139455655505
 20
18.0207095833096
 30
0.0
 10
10.72028294833728
 20
18.51154107018014
 30
0.0
 10
10.72028294833728
 20
18.51154107018014
 30
0.0
 10
10.72250734216526
 20
18.52667779891197
 30
0.0
 10
10.7365318739831
 20
18.53723688790636
 30
0.0
 10
10.75167538440344
 20
18.53514812784838
 30
0.0
 10
10.75167538440344
 20
18.53514812784838
 30
0.0
 10
11.24250687127398
 20
18.46612410229615
 30
0.0
 10
11.24250687127398
 20
18.46612410229615
 30
0.0
 10
11.25778601546431
 20
18.46404212392667
 30
0.0
 10
11.26833832277019
 20
18.45001081042032
 30
0.0
 10
11.26612071063071
 20
18.43473166622999
 30
0.0
  0
SPLINE
  5
3E
330
1F
100
AcDbEntity
  8
Layer 108
370
     0
100
AcDbSpline
210
0.0
220
0.0
230
1.0
 70
    11
 71
     3
 72
    29
 73
    25
 74
     0
 42
0.0000000001
 43
0.0000000001
 40
0.0
 40
0.0
 40
0.0
 40
0.0
 40
1.0
 40
1.0
 40
1.0
 40
2.0
 40
2.0
 40
2.0
 40
3.0
 40
3.0
 40
3.0
 40
4.0
 40
4.0
 40
4.0
 40
5.0
 40
5.0
 40
5.0
 40
6.0
 40
6.0
 40
6.0
 40
7.0
 40
7.0
 40
7.0
 40
8.0
 40
8.0
 40
8.0
 40
8.0
 10
10.7908396354905
 20
17.74473555149367
 30
0.0
 10
10.7908396354905
 20
17.74473555149367
 30
0.0
 10
10.72181560993827
 20
17.25390406462312
 30
0.0
 10
10.72181560993827
 20
17.25390406462312
 30
0.0
 10
10.71972684988029
 20
17.2386181387443
 30
0.0
 10
10.70555990260395
 20
17.22806583143841
 30
0.0
 10
10.69042317387212
 20
17.23029022526639
 30
0.0
 10
10.69042317387212
 20
17.23029022526639
 30
0.0
 10
10.19959168700157
 20
17.29917861704862
 30
0.0
 10
10.19959168700157
 20
17.29917861704862
 30
0.0
 10
10.18444817658124
 20
17.3014030108766
 30
0.0
 10
10.17389586927536
 20
17.31542754269444
 30
0.0
 10
10.17597784764484
 20
17.33056427142627
 30
0.0
 10
10.17597784764484
 20
17.33056427142627
 30
0.0
 10
10.24500865488557
 20
17.82139575829682
 30
0.0
 10
10.24500865488557
 20
17.82139575829682
 30
0.0
 10
10.24709063325505
 20
17.83654605040565
 30
0.0
 10
10.26111516507289
 20
17.84723399148153
 30
0.0
 10
10.27639430926322
 20
17.84500959765355
 30
0.0
 10
10.27639430926322
 20
17.84500959765355
 30
0.0
 10
10.76709016236376
 20
17.77612120587132
 30
0.0
 10
10.76709016236376
 20
17.77612120587132
 30
0.0
 10
10.78236930655409
 20
17.77389681204334
 30
0.0
 10
10.79292161385998
 20
17.7598722802255
 30
0.0
 10
10.7908396354905
 20
17.74473555149367
 30
0.0
  0
SPLINE
  5
3F
330
1F
100
AcDbEntity
  8
Layer 108
370
     0
100
AcDbSpline
210
0.0
220
0.0
230
1.0
 70
    11
 71
     3
 72
    29
 73
    25
 74
     0
 42
0.0000000001
 43
0.0000000001
 40
0.0
 40
0.0
 40
0.0
 40
0.0
 40
1.0
 40
1.0
 40
1.0
 40
2.0
 40
2.0
 40
2.0
 40
3.0
 40
3.0
 40
3.0
 40
4.0
 40
4.0
 40
4.0
 40
5.0
 40
5.0
 40
5.0
 40
6.0
 40
6.0
 40
6.0
 40
7.0
 40
7.0
 40
7.0
 40
8.0
 40
8.0
 40
8.0
 40
8.0
 10
10.57042119586595
 20
18.78917661567855
 30
0.0
 10
10.57042119586595
 20
18.78917661567855
 30
0.0
 10
10.63945200310668
 20
19.28001488423759
 30
0.0
 10
10.63945200310668
 20
19.28001488423759
 30
0.0
 10
10.64153398147616
 20
19.29515161296943
 30
0.0
 10
10.6555652949825
 20
19.30584633573381
 30
0.0
 10
10.67083765748433
 20
19.30362194190583
 30
0.0
 10
10.67083765748433
 20
19.30362194190583
 30
0.0
 10
11.16167592604338
 20
19.2347335501236
 30
0.0
 10
11.16167592604338
 20
19.2347335501236
 30
0.0
 10
11.17681265477521
 20
19.23251593798412
 30
0.0
 10
11.18737174376959
 20
19.21848462447778
 30
0.0
 10
11.18528298371161
 20
19.20334789574595
 30
0.0
 10
11.18528298371161
 20
19.20334789574595
 30
0.0
 10
11.11625895815938
 20
18.7125096271869
 30
0.0
 10
11.11625895815938
 20
18.7125096271869
 30
0.0
 10
11.1141769797899
 20
18.69723726468508
 30
0.0
 10
11.10014566628356
 20
18.68667817569069
 30
0.0
 10
11.08486652209323
 20
18.68890256951867
 30
0.0
 10
11.08486652209323
 20
18.68890256951867
 30
0.0
 10
10.59403503522269
 20
18.7577909613009
 30
0.0
 10
10.59403503522269
 20
18.7577909613009
 30
0.0
 10
10.57889830649086
 20
18.76001535512888
 30
0.0
 10
10.56833921749647
 20
18.77403988694672
 30
0.0
 10
10.57042119586595
 20
18.78917661567855
 30
0.0
  0
SPLINE
  5
40
330
1F
100
AcDbEntity
  8
Layer 108
370
     0
100
AcDbSpline
210
0.0
220
0.0
230
1.0
 70
    11
 71
     3
 72
    29
 73
    25
 74
     0
 42
0.0000000001
 43
0.0000000001
 40
0.0
 40
0.0
 40
0.0
 40
0.0
 40
1.0
 40
1.0
 40
1.0
 40
2.0
 40
2.0
 40
2.0
 40
3.0
 40
3.0
 40
3.0
 40
4.0
 40
4.0
 40
4.0
 40
5.0
 40
5.0
 40
5.0
 40
6.0
 40
6.0
 40
6.0
 40
7.0
 40
7.0
 40
7.0
 40
8.0
 40
8.0
 40
8.0
 40
8.0
 10
10.52403444652647
 20
18.53904081704734
 30
0.0
 10
10.52403444652647
 20
18.53904081704734
 30
0.0
 10
10.45500363928573
 20
18.04820933017679
 30
0.0
 10
10.45500363928573
 20
18.04820933017679
 30
0.0
 10
10.45292166091626
 20
18.03293018598646
 30
0.0
 10
10.43875471363991
 20
18.02237109699208
 30
0.0
 10
10.42361798490808
 20
18.02459549082005
 30
0.0
 10
10.42361798490808
 20
18.02459549082005
 30
0.0
 10
9.932786498037542
 20
18.09348388260229
 30
0.0
 10
9.932786498037542
 20
18.09348388260229
 30
0.0
 10
9.91764298761721
 20
18.09570827643027
 30
0.0
 10
9.907090680311327
 20
18.10973280824811
 30
0.0
 10
9.909172658680804
 20
18.12487631866844
 30
0.0
 10
9.909172658680804
 20
18.12487631866844
 30
0.0
 10
9.978203465921537
 20
18.61570780553898
 30
0.0
 10
9.978203465921537
 20
18.61570780553898
 30
0.0
 10
9.980285444291013
 20
18.63098694972931
 30
0.0
 10
9.994309976108857
 20
18.64153925703519
 30
0.0
 10
10.00958912029919
 20
18.63931486320722
 30
0.0
 10
10.00958912029919
 20
18.63931486320722
 30
0.0
 10
10.50028497339973
 20
18.57042647142499
 30
0.0
 10
10.50028497339973
 20
18.57042647142499
 30
0.0
 10
10.51556411759006
 20
18.56820885928551
 30
0.0
 10
10.52611642489594
 20
18.55417754577917
 30
0.0
 10
10.52403444652647
 20
18.53904081704734
 30
0.0
  0
SPLINE
  5
41
330
1F
100
AcDbEntity
  8
Layer 108
370
     0
100
AcDbSpline
210
0.0
220
0.0
230
1.0
 70
    11
 71
     3
 72
    29
 73
    25
 74
     0
 42
0.0000000001
 43
0.0000000001
 40
0.0
 40
0.0
 40
0.0
 40
0.0
 40
1.0
 40
1.0
 40
1.0
 40
2.0
 40
2.0
 40
2.0
 40
3.0
 40
3.0
 40
3.0
 40
4.0
 40
4.0
 40
4.0
 40
5.0
 40
5.0
 40
5.0
 40
6.0
 40
6.0
 40
6.0
 40
7.0
 40
7.0
 40
7.0
 40
8.0
 40
8.0
 40
8.0
 40
8.0
 10
9.828063664221705
 20
18.89334335103739
 30
0.0
 10
9.828063664221705
 20
18.89334335103739
 30
0.0
 10
9.89695205600394
 20
19.38418161959644
 30
0.0
 10
9.89695205600394
 20
19.38418161959644
 30
0.0
 10
9.899176449831915
 20
19.39931834832827
 30
0.0
 10
9.913200981649759
 20
19.40987065563415
 30
0.0
 10
9.92833771038159
 20
19.40778867726467
 30
0.0
 10
9.92833771038159
 20
19.40778867726467
 30
0.0
 10
10.41917597894063
 20
19.33876465171244
 30
0.0
 10
10.41917597894063
 20
19.33876465171244
 30
0.0
 10
10.43444834144246
 20
19.33668267334296
 30
0.0
 10
10.44500743043685
 20
19.32265135983662
 30
0.0
 10
10.44278303660887
 20
19.30737221564629
 30
0.0
 10
10.44278303660887
 20
19.30737221564629
 30
0.0
 10
10.37389464482664
 20
18.81654072877575
 30
0.0
 10
10.37389464482664
 20
18.81654072877575
 30
0.0
 10
10.37167025099866
 20
18.80140400004392
 30
0.0
 10
10.35764571918082
 20
18.79084491104954
 30
0.0
 10
10.34250899044899
 20
18.79292688941901
 30
0.0
 10
10.34250899044899
 20
18.79292688941901
 30
0.0
 10
9.851670721889944
 20
18.86195769665974
 30
0.0
 10
9.851670721889944
 20
18.86195769665974
 30
0.0
 10
9.836398359388113
 20
18.86403967502922
 30
0.0
 10
9.82583927039373
 20
18.87807098853557
 30
0.0
 10
9.828063664221705
 20
18.89334335103739
 30
0.0
  0
SPLINE
  5
42
330
1F
100
AcDbEntity
  8
Layer 108
370
     0
100
AcDbSpline
210
0.0
220
0.0
230
1.0
 70
    11
 71
     3
 72
    29
 73
    25
 74
     0
 42
0.0000000001
 43
0.0000000001
 40
0.0
 40
0.0
 40
0.0
 40
0.0
 40
1.0
 40
1.0
 40
1.0
 40
2.0
 40
2.0
 40
2.0
 40
3.0
 40
3.0
 40
3.0
 40
4.0
 40
4.0
 40
4.0
 40
5.0
 40
5.0
 40
5.0
 40
6.0
 40
6.0
 40
6.0
 40
7.0
 40
7.0
 40
7.0
 40
8.0
 40
8.0
 40
8.0
 40
8.0
 10
9.781812548652221
 20
18.64334318617617
 30
0.0
 10
9.781812548652221
 20
18.64334318617617
 30
0.0
 10
9.712781741411488
 20
18.15251169930563
 30
0.0
 10
9.712781741411488
 20
18.15251169930563
 30
0.0
 10
9.710699763042012
 20
18.1373749705738
 30
0.0
 10
9.696675231224168
 20
18.12668024780942
 30
0.0
 10
9.681396087033837
 20
18.1288978599489
 30
0.0
 10
9.681396087033837
 20
18.1288978599489
 30
0.0
 10
9.190564600163295
 20
18.19779303341963
 30
0.0
 10
9.190564600163295
 20
18.19779303341963
 30
0.0
 10
9.175421089742963
 20
18.2000106455591
 30
0.0
 10
9.16486878243708
 20
18.21404195906545
 30
0.0
 10
9.166950760806557
 20
18.22917868779728
 30
0.0
 10
9.166950760806557
 20
18.22917868779728
 30
0.0
 10
9.23598156804729
 20
18.72001017466782
 30
0.0
 10
9.23598156804729
 20
18.72001017466782
 30
0.0
 10
9.238063546416766
 20
18.73528931885815
 30
0.0
 10
9.25208807823461
 20
18.74584840785253
 30
0.0
 10
9.26736722242494
 20
18.74362401402456
 30
0.0
 10
9.26736722242494
 20
18.74362401402456
 30
0.0
 10
9.758198709295483
 20
18.67473562224233
 30
0.0
 10
9.758198709295483
 20
18.67473562224233
 30
0.0
 10
9.773342219715815
 20
18.67251122841435
 30
0.0
 10
9.783894527021697
 20
18.6584866965965
 30
0.0
 10
9.781812548652221
 20
18.64334318617617
 30
0.0
  0
SPLINE
  5
43
330
1F
100
AcDbEntity
  8
Layer 108
370
     0
100
AcDbSpline
210
0.0
220
0.0
230
1.0
 70
    11
 71
     3
 72
    29
 73
    25
 74
     0
 42
0.0000000001
 43
0.0000000001
 40
0.0
 40
0.0
 40
0.0
 40
0.0
 40
1.0
 40
1.0
 40
1.0
 40
2.0
 40
2.0
 40
2.0
 40
3.0
 40
3.0
 40
3.0
 40
4.0
 40
4.0
 40
4.0
 40
5.0
 40
5.0
 40
5.0
 40
6.0
 40
6.0
 40
6.0
 40
7.0
 40
7.0
 40
7.0
 40
8.0
 40
8.0
 40
8.0
 40
8.0
 10
9.085699350888962
 20
18.99751008639624
 30
0.0
 10
9.085699350888962
 20
18.99751008639624
 30
0.0
 10
9.154730158129693
 20
19.48834835495528
 30
0.0
 10
9.154730158129693
 20
19.48834835495528
 30
0.0
 10
9.156812136499171
 20
19.50348508368711
 30
0.0
 10
9.170836668317015
 20
19.51417980645149
 30
0.0
 10
9.186115812507344
 20
19.51195541262351
 30
0.0
 10
9.186115812507344
 20
19.51195541262351
 30
0.0
 10
9.676954081066386
 20
19.44306702084128
 30
0.0
 10
9.676954081066386
 20
19.44306702084128
 30
0.0
 10
9.692090809798218
 20
19.4408494087018
 30
0.0
 10
9.7026431171041
 20
19.42681809519546
 30
0.0
 10
9.700561138734624
 20
19.41168136646363
 30
0.0
 10
9.700561138734624
 20
19.41168136646363
 30
0.0
 10
9.631537113182391
 20
18.92084309790459
 30
0.0
 10
9.631537113182391
 20
18.92084309790459
 30
0.0
 10
9.629448353124415
 20
18.90557073540276
 30
0.0
 10
9.615423821306571
 20
18.89501164640838
 30
0.0
 10
9.60014467711624
 20
18.89709362477785
 30
0.0
 10
9.60014467711624
 20
18.89709362477785
 30
0.0
 10
9.109313190245699
 20
18.96612443201859
 30
0.0
 10
9.109313190245699
 20
18.96612443201859
 30
0.0
 10
9.094169679825367
 20
18.96834882584656
 30
0.0
 10
9.083617372519484
 20
18.9823733576644
 30
0.0
 10
9.085699350888962
 20
18.99751008639624
 30
0.0
  0
SPLINE
  5
44
330
1F
100
AcDbEntity
  8
Layer 108
370
     0
100
AcDbSpline
210
0.0
220
0.0
230
1.0
 70
    11
 71
     3
 72
    29
 73
    25
 74
     0
 42
0.0000000001
 43
0.0000000001
 40
0.0
 40
0.0
 40
0.0
 40
0.0
 40
1.0
 40
1.0
 40
1.0
 40
2.0
 40
2.0
 40
2.0
 40
3.0
 40
3.0
 40
3.0
 40
4.0
 40
4.0
 40
4.0
 40
5.0
 40
5.0
 40
5.0
 40
6.0
 40
6.0
 40
6.0
 40
7.0
 40
7.0
 40
7.0
 40
8.0
 40
8.0
 40
8.0
 40
8.0
 10
9.039590650777974
 20
18.74765233699351
 30
0.0
 10
9.039590650777974
 20
18.74765233699351
 30
0.0
 10
8.970559843537242
 20
18.25682085012297
 30
0.0
 10
8.970559843537242
 20
18.25682085012297
 30
0.0
 10
8.968477865167765
 20
18.24167733970264
 30
0.0
 10
8.954310917891423
 20
18.23112503239676
 30
0.0
 10
8.93917418915959
 20
18.23320701076624
 30
0.0
 10
8.93917418915959
 20
18.23320701076624
 30
0.0
 10
8.448335920600549
 20
18.30223103631847
 30
0.0
 10
8.448335920600549
 20
18.30223103631847
 30
0.0
 10
8.433199191868718
 20
18.30431979637644
 30
0.0
 10
8.422646884562836
 20
18.31834432819429
 30
0.0
 10
8.424728862932312
 20
18.33362347238462
 30
0.0
 10
8.424728862932312
 20
18.33362347238462
 30
0.0
 10
8.493752888484545
 20
18.82431932548516
 30
0.0
 10
8.493752888484545
 20
18.82431932548516
 30
0.0
 10
8.495841648542521
 20
18.83959846967549
 30
0.0
 10
8.509866180360365
 20
18.85015077698138
 30
0.0
 10
8.525145324550696
 20
18.8480687986119
 30
0.0
 10
8.525145324550696
 20
18.8480687986119
 30
0.0
 10
9.015976811421236
 20
18.77903799137117
 30
0.0
 10
9.015976811421236
 20
18.77903799137117
 30
0.0
 10
9.031120321841568
 20
18.77695601300169
 30
0.0
 10
9.04167262914745
 20
18.76278906572535
 30
0.0
 10
9.039590650777974
 20
18.74765233699351
 30
0.0
  0
SPLINE
  5
45
330
1F
100
AcDbEntity
  8
Layer 108
370
     0
100
AcDbSpline
210
0.0
220
0.0
230
1.0
 70
    11
 71
     3
 72
    29
 73
    25
 74
     0
 42
0.0000000001
 43
0.0000000001
 40
0.0
 40
0.0
 40
0.0
 40
0.0
 40
1.0
 40
1.0
 40
1.0
 40
2.0
 40
2.0
 40
2.0
 40
3.0
 40
3.0
 40
3.0
 40
4.0
 40
4.0
 40
4.0
 40
5.0
 40
5.0
 40
5.0
 40
6.0
 40
6.0
 40
6.0
 40
7.0
 40
7.0
 40
7.0
 40
8.0
 40
8.0
 40
8.0
 40
8.0
 10
8.487086488689119
 20
18.05931773593967
 30
0.0
 10
8.487086488689119
 20
18.05931773593967
 30
0.0
 10
8.487086488689119
 20
17.56375941218468
 30
0.0
 10
8.487086488689119
 20
17.56375941218468
 30
0.0
 10
8.487086488689119
 20
17.54835141591285
 30
0.0
 10
8.474587836783758
 20
17.53598161608899
 30
0.0
 10
8.459308692593428
 20
17.53598161608899
 30
0.0
 10
8.459308692593428
 20
17.53598161608899
 30
0.0
 10
7.96361473506844
 20
17.53598161608899
 30
0.0
 10
7.96361473506844
 20
17.53598161608899
 30
0.0
 10
7.94833559087811
 20
17.53598161608899
 30
0.0
 10
7.935836938972749
 20
17.54835141591285
 30
0.0
 10
7.935836938972749
 20
17.56375941218468
 30
0.0
 10
7.935836938972749
 20
17.56375941218468
 30
0.0
 10
7.935836938972749
 20
18.05931773593967
 30
0.0
 10
7.935836938972749
 20
18.05931773593967
 30
0.0
 10
7.935836938972749
 20
18.0747325139
 30
0.0
 10
7.94833559087811
 20
18.08709553203536
 30
0.0
 10
7.96361473506844
 20
18.08709553203536
 30
0.0
 10
7.96361473506844
 20
18.08709553203536
 30
0.0
 10
8.459308692593428
 20
18.08709553203536
 30
0.0
 10
8.459308692593428
 20
18.08709553203536
 30
0.0
 10
8.474587836783758
 20
18.08709553203536
 30
0.0
 10
8.487086488689119
 20
18.0747325139
 30
0.0
 10
8.487086488689119
 20
18.05931773593967
 30
0.0
  0
SPLINE
  5
46
330
1F
100
AcDbEntity
  8
Layer 108
370
     0
100
AcDbSpline
210
0.0
220
0.0
230
1.0
 70
    11
 71
     3
 72
    29
 73
    25
 74
     0
 42
0.0000000001
 43
0.0000000001
 40
0.0
 40
0.0
 40
0.0
 40
0.0
 40
1.0
 40
1.0
 40
1.0
 40
2.0
 40
2.0
 40
2.0
 40
3.0
 40
3.0
 40
3.0
 40
4.0
 40
4.0
 40
4.0
 40
5.0
 40
5.0
 40
5.0
 40
6.0
 40
6.0
 40
6.0
 40
7.0
 40
7.0
 40
7.0
 40
8.0
 40
8.0
 40
8.0
 40
8.0
 10
8.343477453014716
 20
19.10181923721358
 30
0.0
 10
8.343477453014716
 20
19.10181923721358
 30
0.0
 10
8.412508260255448
 20
19.59265072408412
 30
0.0
 10
8.412508260255448
 20
19.59265072408412
 30
0.0
 10
8.414590238624925
 20
19.60778745281595
 30
0.0
 10
8.428614770442769
 20
19.61848217558033
 30
0.0
 10
8.4438939146331
 20
19.61626456344085
 30
0.0
 10
8.4438939146331
 20
19.61626456344085
 30
0.0
 10
8.934589767733643
 20
19.54737617165862
 30
0.0
 10
8.934589767733643
 20
19.54737617165862
 30
0.0
 10
8.949868911923971
 20
19.54515177783065
 30
0.0
 10
8.960421219229854
 20
19.5311272460128
 30
0.0
 10
8.958339240860377
 20
19.51598373559247
 30
0.0
 10
8.958339240860377
 20
19.51598373559247
 30
0.0
 10
8.889308433619645
 20
19.02515224872193
 30
0.0
 10
8.889308433619645
 20
19.02515224872193
 30
0.0
 10
8.887226455250168
 20
19.0098731045316
 30
0.0
 10
8.873059507973826
 20
18.99932079722572
 30
0.0
 10
8.857922779241994
 20
19.00140277559519
 30
0.0
 10
8.857922779241994
 20
19.00140277559519
 30
0.0
 10
8.367091292371454
 20
19.07042680114743
 30
0.0
 10
8.367091292371454
 20
19.07042680114743
 30
0.0
 10
8.351947781951122
 20
19.0726511949754
 30
0.0
 10
8.341395474645239
 20
19.08668250848174
 30
0.0
 10
8.343477453014716
 20
19.10181923721358
 30
0.0
  0
SPLINE
  5
47
330
1F
100
AcDbEntity
  8
Layer 108
370
     0
100
AcDbSpline
210
0.0
220
0.0
230
1.0
 70
    11
 71
     3
 72
    23
 73
    19
 74
     0
 42
0.0000000001
 43
0.0000000001
 40
0.0
 40
0.0
 40
0.0
 40
0.0
 40
1.0
 40
1.0
 40
1.0
 40
2.0
 40
2.0
 40
2.0
 40
3.0
 40
3.0
 40
3.0
 40
4.0
 40
4.0
 40
4.0
 40
5.0
 40
5.0
 40
5.0
 40
6.0
 40
6.0
 40
6.0
 40
6.0
 10
6.975563410760428
 20
19.83834451674788
 30
0.0
 10
7.013757880392003
 20
19.83834451674788
 30
0.0
 10
7.04458743631266
 20
19.80751496082723
 30
0.0
 10
7.04458743631266
 20
19.76945612496565
 30
0.0
 10
7.04458743631266
 20
19.75890381765977
 30
0.0
 10
7.042227408714687
 20
19.74890082712238
 30
0.0
 10
7.037921036517234
 20
19.74001003349898
 30
0.0
 10
7.026948264524356
 20
19.71668102505924
 30
0.0
 10
7.003198791397621
 20
19.70056773318342
 30
0.0
 10
6.975563410760428
 20
19.70056773318342
 30
0.0
 10
6.948056882204733
 20
19.70056773318342
 30
0.0
 10
6.924307409077998
 20
19.71668102505924
 30
0.0
 10
6.91333463708512
 20
19.74001003349898
 30
0.0
 10
6.909035046576167
 20
19.74890082712238
 30
0.0
 10
6.906668237289693
 20
19.75890381765977
 30
0.0
 10
6.906668237289693
 20
19.76945612496565
 30
0.0
 10
6.906668237289693
 20
19.80751496082723
 30
0.0
 10
6.937504574898851
 20
19.83834451674788
 30
0.0
 10
6.975563410760428
 20
19.83834451674788
 30
0.0
  0
SPLINE
  5
48
330
1F
100
AcDbEntity
  8
Layer 108
370
     0
100
AcDbSpline
210
0.0
220
0.0
230
1.0
 70
    11
 71
     3
 72
    29
 73
    25
 74
     0
 42
0.0000000001
 43
0.0000000001
 40
0.0
 40
0.0
 40
0.0
 40
0.0
 40
1.0
 40
1.0
 40
1.0
 40
2.0
 40
2.0
 40
2.0
 40
3.0
 40
3.0
 40
3.0
 40
4.0
 40
4.0
 40
4.0
 40
5.0
 40
5.0
 40
5.0
 40
6.0
 40
6.0
 40
6.0
 40
7.0
 40
7.0
 40
7.0
 40
8.0
 40
8.0
 40
8.0
 40
8.0
 10
6.841672534706417
 20
19.57334325692483
 30
0.0
 10
6.841672534706417
 20
19.58862240111516
 30
0.0
 10
6.854035552841779
 20
19.60112105302052
 30
0.0
 10
6.869450330802108
 20
19.60112105302052
 30
0.0
 10
6.869450330802108
 20
19.60112105302052
 30
0.0
 10
7.365001872868596
 20
19.60112105302052
 30
0.0
 10
7.365001872868596
 20
19.60112105302052
 30
0.0
 10
7.380423432517425
 20
19.60112105302052
 30
0.0
 10
7.392779668964288
 20
19.58862240111516
 30
0.0
 10
7.392779668964288
 20
19.57334325692483
 30
0.0
 10
7.392779668964288
 20
19.57334325692483
 30
0.0
 10
7.392779668964288
 20
19.07764929939984
 30
0.0
 10
7.392779668964288
 20
19.07764929939984
 30
0.0
 10
7.392779668964288
 20
19.06237693689802
 30
0.0
 10
7.380423432517425
 20
19.04987150330415
 30
0.0
 10
7.365001872868596
 20
19.04987150330415
 30
0.0
 10
7.365001872868596
 20
19.04987150330415
 30
0.0
 10
6.869450330802108
 20
19.04987150330415
 30
0.0
 10
6.869450330802108
 20
19.04987150330415
 30
0.0
 10
6.854035552841779
 20
19.04987150330415
 30
0.0
 10
6.841672534706417
 20
19.06237693689802
 30
0.0
 10
6.841672534706417
 20
19.07764929939984
 30
0.0
 10
6.841672534706417
 20
19.07764929939984
 30
0.0
 10
6.841672534706417
 20
19.57334325692483
 30
0.0
 10
6.841672534706417
 20
19.57334325692483
 30
0.0
  0
SPLINE
  5
49
330
1F
100
AcDbEntity
  8
Layer 108
370
     0
100
AcDbSpline
210
0.0
220
0.0
230
1.0
 70
    11
 71
     3
 72
    29
 73
    25
 74
     0
 42
0.0000000001
 43
0.0000000001
 40
0.0
 40
0.0
 40
0.0
 40
0.0
 40
1.0
 40
1.0
 40
1.0
 40
2.0
 40
2.0
 40
2.0
 40
3.0
 40
3.0
 40
3.0
 40
4.0
 40
4.0
 40
4.0
 40
5.0
 40
5.0
 40
5.0
 40
6.0
 40
6.0
 40
6.0
 40
7.0
 40
7.0
 40
7.0
 40
8.0
 40
8.0
 40
8.0
 40
8.0
 10
6.8341719872255
 20
18.81639831331725
 30
0.0
 10
6.8341719872255
 20
18.83167745750758
 30
0.0
 10
6.846535005360862
 20
18.84417610941294
 30
0.0
 10
6.861949783321191
 20
18.84417610941294
 30
0.0
 10
6.861949783321191
 20
18.84417610941294
 30
0.0
 10
7.35750810707618
 20
18.84417610941294
 30
0.0
 10
7.35750810707618
 20
18.84417610941294
 30
0.0
 10
7.372922885036509
 20
18.84417610941294
 30
0.0
 10
7.385285903171871
 20
18.83167745750758
 30
0.0
 10
7.385285903171871
 20
18.81639831331725
 30
0.0
 10
7.385285903171871
 20
18.81639831331725
 30
0.0
 10
7.385285903171871
 20
18.32070435579226
 30
0.0
 10
7.385285903171871
 20
18.32070435579226
 30
0.0
 10
7.385285903171871
 20
18.30543199329043
 30
0.0
 10
7.372922885036509
 20
18.29292655969657
 30
0.0
 10
7.35750810707618
 20
18.29292655969657
 30
0.0
 10
7.35750810707618
 20
18.29292655969657
 30
0.0
 10
6.861949783321191
 20
18.29292655969657
 30
0.0
 10
6.861949783321191
 20
18.29292655969657
 30
0.0
 10
6.846535005360862
 20
18.29292655969657
 30
0.0
 10
6.8341719872255
 20
18.30543199329043
 30
0.0
 10
6.8341719872255
 20
18.32070435579226
 30
0.0
 10
6.8341719872255
 20
18.32070435579226
 30
0.0
 10
6.8341719872255
 20
18.81639831331725
 30
0.0
 10
6.8341719872255
 20
18.81639831331725
 30
0.0
  0
SPLINE
  5
4A
330
1F
100
AcDbEntity
  8
Layer 108
370
     0
100
AcDbSpline
210
0.0
220
0.0
230
1.0
 70
    11
 71
     3
 72
    29
 73
    25
 74
     0
 42
0.0000000001
 43
0.0000000001
 40
0.0
 40
0.0
 40
0.0
 40
0.0
 40
1.0
 40
1.0
 40
1.0
 40
2.0
 40
2.0
 40
2.0
 40
3.0
 40
3.0
 40
3.0
 40
4.0
 40
4.0
 40
4.0
 40
5.0
 40
5.0
 40
5.0
 40
6.0
 40
6.0
 40
6.0
 40
7.0
 40
7.0
 40
7.0
 40
8.0
 40
8.0
 40
8.0
 40
8.0
 10
7.351533439507747
 20
16.8068144685771
 30
0.0
 10
7.351533439507747
 20
16.79140647230527
 30
0.0
 10
7.339170421372384
 20
16.77903667248141
 30
0.0
 10
7.323755643412055
 20
16.77903667248141
 30
0.0
 10
7.323755643412055
 20
16.77903667248141
 30
0.0
 10
6.828197319657066
 20
16.77903667248141
 30
0.0
 10
6.828197319657066
 20
16.77903667248141
 30
0.0
 10
6.812782541696738
 20
16.77903667248141
 30
0.0
 10
6.800419523561375
 20
16.79140647230527
 30
0.0
 10
6.800419523561375
 20
16.8068144685771
 30
0.0
 10
6.800419523561375
 20
16.8068144685771
 30
0.0
 10
6.800419523561375
 20
17.30236601064359
 30
0.0
 10
6.800419523561375
 20
17.30236601064359
 30
0.0
 10
6.800419523561375
 20
17.31778757029242
 30
0.0
 10
6.812782541696738
 20
17.33014380673928
 30
0.0
 10
6.828197319657066
 20
17.33014380673928
 30
0.0
 10
6.828197319657066
 20
17.33014380673928
 30
0.0
 10
7.323755643412055
 20
17.33014380673928
 30
0.0
 10
7.323755643412055
 20
17.33014380673928
 30
0.0
 10
7.339170421372384
 20
17.33014380673928
 30
0.0
 10
7.351533439507747
 20
17.31778757029242
 30
0.0
 10
7.351533439507747
 20
17.30236601064359
 30
0.0
 10
7.351533439507747
 20
17.30236601064359
 30
0.0
 10
7.351533439507747
 20
16.8068144685771
 30
0.0
 10
7.351533439507747
 20
16.8068144685771
 30
0.0
  0
SPLINE
  5
4B
330
1F
100
AcDbEntity
  8
Layer 108
370
     0
100
AcDbSpline
210
0.0
220
0.0
230
1.0
 70
    11
 71
     3
 72
    29
 73
    25
 74
     0
 42
0.0000000001
 43
0.0000000001
 40
0.0
 40
0.0
 40
0.0
 40
0.0
 40
1.0
 40
1.0
 40
1.0
 40
2.0
 40
2.0
 40
2.0
 40
3.0
 40
3.0
 40
3.0
 40
4.0
 40
4.0
 40
4.0
 40
5.0
 40
5.0
 40
5.0
 40
6.0
 40
6.0
 40
6.0
 40
7.0
 40
7.0
 40
7.0
 40
8.0
 40
8.0
 40
8.0
 40
8.0
 10
7.456534322552079
 20
17.56375941218468
 30
0.0
 10
7.456534322552079
 20
17.54835141591285
 30
0.0
 10
7.444035670646718
 20
17.53598161608899
 30
0.0
 10
7.428756526456388
 20
17.53598161608899
 30
0.0
 10
7.428756526456388
 20
17.53598161608899
 30
0.0
 10
6.9330625689314
 20
17.53598161608899
 30
0.0
 10
6.9330625689314
 20
17.53598161608899
 30
0.0
 10
6.91778342474107
 20
17.53598161608899
 30
0.0
 10
6.905284772835709
 20
17.54835141591285
 30
0.0
 10
6.905284772835709
 20
17.56375941218468
 30
0.0
 10
6.905284772835709
 20
17.56375941218468
 30
0.0
 10
6.905284772835709
 20
18.05931773593967
 30
0.0
 10
6.905284772835709
 20
18.05931773593967
 30
0.0
 10
6.905284772835709
 20
18.0747325139
 30
0.0
 10
6.91778342474107
 20
18.08709553203536
 30
0.0
 10
6.9330625689314
 20
18.08709553203536
 30
0.0
 10
6.9330625689314
 20
18.08709553203536
 30
0.0
 10
7.428756526456388
 20
18.08709553203536
 30
0.0
 10
7.428756526456388
 20
18.08709553203536
 30
0.0
 10
7.444035670646718
 20
18.08709553203536
 30
0.0
 10
7.456534322552079
 20
18.0747325139
 30
0.0
 10
7.456534322552079
 20
18.05931773593967
 30
0.0
 10
7.456534322552079
 20
18.05931773593967
 30
0.0
 10
7.456534322552079
 20
17.56375941218468
 30
0.0
 10
7.456534322552079
 20
17.56375941218468
 30
0.0
  0
SPLINE
  5
4C
330
1F
100
AcDbEntity
  8
Layer 108
370
     0
100
AcDbSpline
210
0.0
220
0.0
230
1.0
 70
    11
 71
     3
 72
    29
 73
    25
 74
     0
 42
0.0000000001
 43
0.0000000001
 40
0.0
 40
0.0
 40
0.0
 40
0.0
 40
1.0
 40
1.0
 40
1.0
 40
2.0
 40
2.0
 40
2.0
 40
3.0
 40
3.0
 40
3.0
 40
4.0
 40
4.0
 40
4.0
 40
5.0
 40
5.0
 40
5.0
 40
6.0
 40
6.0
 40
6.0
 40
7.0
 40
7.0
 40
7.0
 40
8.0
 40
8.0
 40
8.0
 40
8.0
 10
7.591116930833082
 20
19.07764929939984
 30
0.0
 10
7.591116930833082
 20
19.07764929939984
 30
0.0
 10
7.591116930833082
 20
19.57334325692483
 30
0.0
 10
7.591116930833082
 20
19.57334325692483
 30
0.0
 10
7.591116930833082
 20
19.58862240111516
 30
0.0
 10
7.603479948968444
 20
19.60112105302052
 30
0.0
 10
7.618894726928773
 20
19.60112105302052
 30
0.0
 10
7.618894726928773
 20
19.60112105302052
 30
0.0
 10
8.114453050683762
 20
19.60112105302052
 30
0.0
 10
8.114453050683762
 20
19.60112105302052
 30
0.0
 10
8.129867828644091
 20
19.60112105302052
 30
0.0
 10
8.142230846779453
 20
19.58862240111516
 30
0.0
 10
8.142230846779453
 20
19.57334325692483
 30
0.0
 10
8.142230846779453
 20
19.57334325692483
 30
0.0
 10
8.142230846779453
 20
19.07764929939984
 30
0.0
 10
8.142230846779453
 20
19.07764929939984
 30
0.0
 10
8.142230846779453
 20
19.06237693689802
 30
0.0
 10
8.129867828644091
 20
19.04987150330415
 30
0.0
 10
8.114453050683762
 20
19.04987150330415
 30
0.0
 10
8.114453050683762
 20
19.04987150330415
 30
0.0
 10
7.618894726928773
 20
19.04987150330415
 30
0.0
 10
7.618894726928773
 20
19.04987150330415
 30
0.0
 10
7.603479948968444
 20
19.04987150330415
 30
0.0
 10
7.591116930833082
 20
19.06237693689802
 30
0.0
 10
7.591116930833082
 20
19.07764929939984
 30
0.0
  0
SPLINE
  5
4D
330
1F
100
AcDbEntity
  8
Layer 108
370
     0
100
AcDbSpline
210
0.0
220
0.0
230
1.0
 70
    11
 71
     3
 72
    29
 73
    25
 74
     0
 42
0.0000000001
 43
0.0000000001
 40
0.0
 40
0.0
 40
0.0
 40
0.0
 40
1.0
 40
1.0
 40
1.0
 40
2.0
 40
2.0
 40
2.0
 40
3.0
 40
3.0
 40
3.0
 40
4.0
 40
4.0
 40
4.0
 40
5.0
 40
5.0
 40
5.0
 40
6.0
 40
6.0
 40
6.0
 40
7.0
 40
7.0
 40
7.0
 40
8.0
 40
8.0
 40
8.0
 40
8.0
 10
7.673480537664666
 20
18.32070435579226
 30
0.0
 10
7.673480537664666
 20
18.32070435579226
 30
0.0
 10
7.673480537664666
 20
18.81639831331725
 30
0.0
 10
7.673480537664666
 20
18.81639831331725
 30
0.0
 10
7.673480537664666
 20
18.83167745750758
 30
0.0
 10
7.685979189570027
 20
18.84417610941294
 30
0.0
 10
7.701258333760357
 20
18.84417610941294
 30
0.0
 10
7.701258333760357
 20
18.84417610941294
 30
0.0
 10
8.196952291285346
 20
18.84417610941294
 30
0.0
 10
8.196952291285346
 20
18.84417610941294
 30
0.0
 10
8.212224653787175
 20
18.84417610941294
 30
0.0
 10
8.224730087381037
 20
18.83167745750758
 30
0.0
 10
8.224730087381037
 20
18.81639831331725
 30
0.0
 10
8.224730087381037
 20
18.81639831331725
 30
0.0
 10
8.224730087381037
 20
18.32070435579226
 30
0.0
 10
8.224730087381037
 20
18.32070435579226
 30
0.0
 10
8.224730087381037
 20
18.30543199329043
 30
0.0
 10
8.212224653787175
 20
18.29292655969657
 30
0.0
 10
8.196952291285346
 20
18.29292655969657
 30
0.0
 10
8.196952291285346
 20
18.29292655969657
 30
0.0
 10
7.701258333760357
 20
18.29292655969657
 30
0.0
 10
7.701258333760357
 20
18.29292655969657
 30
0.0
 10
7.685979189570027
 20
18.29292655969657
 30
0.0
 10
7.673480537664666
 20
18.30543199329043
 30
0.0
 10
7.673480537664666
 20
18.32070435579226
 30
0.0
  0
SPLINE
  5
4E
330
1F
100
AcDbEntity
  8
Layer 108
370
     0
100
AcDbSpline
210
0.0
220
0.0
230
1.0
 70
    11
 71
     3
 72
    29
 73
    25
 74
     0
 42
0.0000000001
 43
0.0000000001
 40
0.0
 40
0.0
 40
0.0
 40
0.0
 40
1.0
 40
1.0
 40
1.0
 40
2.0
 40
2.0
 40
2.0
 40
3.0
 40
3.0
 40
3.0
 40
4.0
 40
4.0
 40
4.0
 40
5.0
 40
5.0
 40
5.0
 40
6.0
 40
6.0
 40
6.0
 40
7.0
 40
7.0
 40
7.0
 40
8.0
 40
8.0
 40
8.0
 40
8.0
 10
8.288335543821828
 20
16.8068144685771
 30
0.0
 10
8.288335543821828
 20
16.79140647230527
 30
0.0
 10
8.275979307374966
 20
16.77903667248141
 30
0.0
 10
8.260557747726137
 20
16.77903667248141
 30
0.0
 10
8.260557747726137
 20
16.77903667248141
 30
0.0
 10
7.765006205659649
 20
16.77903667248141
 30
0.0
 10
7.765006205659649
 20
16.77903667248141
 30
0.0
 10
7.74959142769932
 20
16.77903667248141
 30
0.0
 10
7.737228409563958
 20
16.79140647230527
 30
0.0
 10
7.737228409563958
 20
16.8068144685771
 30
0.0
 10
7.737228409563958
 20
16.8068144685771
 30
0.0
 10
7.737228409563958
 20
17.30236601064359
 30
0.0
 10
7.737228409563958
 20
17.30236601064359
 30
0.0
 10
7.737228409563958
 20
17.31778757029242
 30
0.0
 10
7.74959142769932
 20
17.33014380673928
 30
0.0
 10
7.765006205659649
 20
17.33014380673928
 30
0.0
 10
7.765006205659649
 20
17.33014380673928
 30
0.0
 10
8.260557747726137
 20
17.33014380673928
 30
0.0
 10
8.260557747726137
 20
17.33014380673928
 30
0.0
 10
8.275979307374966
 20
17.33014380673928
 30
0.0
 10
8.288335543821828
 20
17.31778757029242
 30
0.0
 10
8.288335543821828
 20
17.30236601064359
 30
0.0
 10
8.288335543821828
 20
17.30236601064359
 30
0.0
 10
8.288335543821828
 20
16.8068144685771
 30
0.0
 10
8.288335543821828
 20
16.8068144685771
 30
0.0
  0
SPLINE
  5
4F
330
1F
100
AcDbEntity
  8
Layer 108
370
     0
100
AcDbSpline
210
0.0
220
0.0
230
1.0
 70
    11
 71
     3
 72
    23
 73
    19
 74
     0
 42
0.0000000001
 43
0.0000000001
 40
0.0
 40
0.0
 40
0.0
 40
0.0
 40
1.0
 40
1.0
 40
1.0
 40
2.0
 40
2.0
 40
2.0
 40
3.0
 40
3.0
 40
3.0
 40
4.0
 40
4.0
 40
4.0
 40
5.0
 40
5.0
 40
5.0
 40
6.0
 40
6.0
 40
6.0
 40
6.0
 10
8.567646166379722
 20
16.47890626622874
 30
0.0
 10
8.556673394386845
 20
16.455563694412
 30
0.0
 10
8.532923921260108
 20
16.43945040253618
 30
0.0
 10
8.505424174392914
 20
16.43945040253618
 30
0.0
 10
8.477782012067221
 20
16.43945040253618
 30
0.0
 10
8.454032538940487
 20
16.455563694412
 30
0.0
 10
8.443059766947608
 20
16.47890626622874
 30
0.0
 10
8.438895810208654
 20
16.48779027816365
 30
0.0
 10
8.436393367152183
 20
16.49778648701253
 30
0.0
 10
8.436393367152183
 20
16.50833879431842
 30
0.0
 10
8.436393367152183
 20
16.54639763017999
 30
0.0
 10
8.467229704761339
 20
16.57722718610065
 30
0.0
 10
8.505424174392914
 20
16.57722718610065
 30
0.0
 10
8.54361864402449
 20
16.57722718610065
 30
0.0
 10
8.574312566175148
 20
16.54639763017999
 30
0.0
 10
8.574312566175148
 20
16.50833879431842
 30
0.0
 10
8.574312566175148
 20
16.49778648701253
 30
0.0
 10
8.571952538577175
 20
16.48779027816365
 30
0.0
 10
8.567646166379722
 20
16.47890626622874
 30
0.0
  0
SPLINE
  5
50
330
1F
100
AcDbEntity
  8
Layer 108
370
     0
100
AcDbSpline
210
0.0
220
0.0
230
1.0
 70
    11
 71
     3
 72
    29
 73
    25
 74
     0
 42
0.0000000001
 43
0.0000000001
 40
0.0
 40
0.0
 40
0.0
 40
0.0
 40
1.0
 40
1.0
 40
1.0
 40
2.0
 40
2.0
 40
2.0
 40
3.0
 40
3.0
 40
3.0
 40
4.0
 40
4.0
 40
4.0
 40
5.0
 40
5.0
 40
5.0
 40
6.0
 40
6.0
 40
6.0
 40
7.0
 40
7.0
 40
7.0
 40
8.0
 40
8.0
 40
8.0
 40
8.0
 10
9.205979378123624
 20
17.43875932975407
 30
0.0
 10
9.205979378123624
 20
17.43875932975407
 30
0.0
 10
8.715147891253082
 20
17.5077833553063
 30
0.0
 10
8.715147891253082
 20
17.5077833553063
 30
0.0
 10
8.70000438083275
 20
17.50987211536428
 30
0.0
 10
8.689452073526867
 20
17.52404584432912
 30
0.0
 10
8.691534051896346
 20
17.53918257306096
 30
0.0
 10
8.691534051896346
 20
17.53918257306096
 30
0.0
 10
8.760558077448577
 20
18.0300140599315
 30
0.0
 10
8.760558077448577
 20
18.0300140599315
 30
0.0
 10
8.762646837506555
 20
18.04515078866333
 30
0.0
 10
8.776671369324399
 20
18.05570309596921
 30
0.0
 10
8.791950513514728
 20
18.05362111759973
 30
0.0
 10
8.791950513514728
 20
18.05362111759973
 30
0.0
 10
9.28278200038527
 20
17.984590310359
 30
0.0
 10
9.28278200038527
 20
17.984590310359
 30
0.0
 10
9.297925510805602
 20
17.98251511367802
 30
0.0
 10
9.308477818111484
 20
17.96849058186018
 30
0.0
 10
9.306395839742008
 20
17.95320465598135
 30
0.0
 10
9.306395839742008
 20
17.95320465598135
 30
0.0
 10
9.237365032501275
 20
17.46237316911081
 30
0.0
 10
9.237365032501275
 20
17.46237316911081
 30
0.0
 10
9.235283054131799
 20
17.44723644037898
 30
0.0
 10
9.221258522313954
 20
17.43668413307309
 30
0.0
 10
9.205979378123624
 20
17.43875932975407
 30
0.0
  0
SPLINE
  5
51
330
1F
100
AcDbEntity
  8
Layer 108
370
     0
100
AcDbSpline
210
0.0
220
0.0
230
1.0
 70
    11
 71
     3
 72
    29
 73
    25
 74
     0
 42
0.0000000001
 43
0.0000000001
 40
0.0
 40
0.0
 40
0.0
 40
0.0
 40
1.0
 40
1.0
 40
1.0
 40
2.0
 40
2.0
 40
2.0
 40
3.0
 40
3.0
 40
3.0
 40
4.0
 40
4.0
 40
4.0
 40
5.0
 40
5.0
 40
5.0
 40
6.0
 40
6.0
 40
6.0
 40
7.0
 40
7.0
 40
7.0
 40
8.0
 40
8.0
 40
8.0
 40
8.0
 10
9.851535088119945
 20
17.11973513934062
 30
0.0
 10
9.851535088119945
 20
17.11973513934062
 30
0.0
 10
9.782504280879213
 20
16.62903928624008
 30
0.0
 10
9.782504280879213
 20
16.62903928624008
 30
0.0
 10
9.780422302509736
 20
16.61376692373824
 30
0.0
 10
9.766255355233394
 20
16.60320105305536
 30
0.0
 10
9.751118626501562
 20
16.60528981311334
 30
0.0
 10
9.751118626501562
 20
16.60528981311334
 30
0.0
 10
9.26028713963102
 20
16.67431383866557
 30
0.0
 10
9.26028713963102
 20
16.67431383866557
 30
0.0
 10
9.245143629210688
 20
16.67640259872355
 30
0.0
 10
9.234591321904805
 20
16.69056276431139
 30
0.0
 10
9.236673300274283
 20
16.70569949304322
 30
0.0
 10
9.236673300274283
 20
16.70569949304322
 30
0.0
 10
9.305697325826515
 20
17.19654454329076
 30
0.0
 10
9.305697325826515
 20
17.19654454329076
 30
0.0
 10
9.307786085884493
 20
17.2116812720226
 30
0.0
 10
9.321810617702337
 20
17.22223357932848
 30
0.0
 10
9.337089761892665
 20
17.2201448192705
 30
0.0
 10
9.337089761892665
 20
17.2201448192705
 30
0.0
 10
9.827785614993209
 20
17.15112079371827
 30
0.0
 10
9.827785614993209
 20
17.15112079371827
 30
0.0
 10
9.84306475918354
 20
17.14904559703729
 30
0.0
 10
9.853617066489422
 20
17.13500750184245
 30
0.0
 10
9.851535088119945
 20
17.11973513934062
 30
0.0
  0
SPLINE
  5
52
330
1F
100
AcDbEntity
  8
Layer 108
370
     0
100
AcDbSpline
210
0.0
220
0.0
230
1.0
 70
    11
 71
     3
 72
    29
 73
    25
 74
     0
 42
0.0000000001
 43
0.0000000001
 40
0.0
 40
0.0
 40
0.0
 40
0.0
 40
1.0
 40
1.0
 40
1.0
 40
2.0
 40
2.0
 40
2.0
 40
3.0
 40
3.0
 40
3.0
 40
4.0
 40
4.0
 40
4.0
 40
5.0
 40
5.0
 40
5.0
 40
6.0
 40
6.0
 40
6.0
 40
7.0
 40
7.0
 40
7.0
 40
8.0
 40
8.0
 40
8.0
 40
8.0
 10
10.04848210384625
 20
17.84890228685251
 30
0.0
 10
10.04848210384625
 20
17.84890228685251
 30
0.0
 10
9.979586930375522
 20
17.35820643375197
 30
0.0
 10
9.979586930375522
 20
17.35820643375197
 30
0.0
 10
9.977369318236045
 20
17.34293407125014
 30
0.0
 10
9.963338004729701
 20
17.33236820056725
 30
0.0
 10
9.94820127599787
 20
17.33445696062523
 30
0.0
 10
9.94820127599787
 20
17.33445696062523
 30
0.0
 10
9.457369789127329
 20
17.40348098617746
 30
0.0
 10
9.457369789127329
 20
17.40348098617746
 30
0.0
 10
9.442226278706997
 20
17.40556974623544
 30
0.0
 10
9.431531555942616
 20
17.41972991182328
 30
0.0
 10
9.43375594977059
 20
17.43486664055511
 30
0.0
 10
9.43375594977059
 20
17.43486664055511
 30
0.0
 10
9.502644341552825
 20
17.92571169080265
 30
0.0
 10
9.502644341552825
 20
17.92571169080265
 30
0.0
 10
9.5048687353808
 20
17.94084841953449
 30
0.0
 10
9.518893267198644
 20
17.95140072684037
 30
0.0
 10
9.534036777618976
 20
17.94931196678239
 30
0.0
 10
9.534036777618976
 20
17.94931196678239
 30
0.0
 10
10.02486826448952
 20
17.88028794123016
 30
0.0
 10
10.02486826448952
 20
17.88028794123016
 30
0.0
 10
10.04014740867985
 20
17.87821274454918
 30
0.0
 10
10.05069971598573
 20
17.86417464935434
 30
0.0
 10
10.04848210384625
 20
17.84890228685251
 30
0.0
  0
SPLINE
  5
53
330
1F
100
AcDbEntity
  8
Layer 108
370
     0
100
AcDbSpline
210
0.0
220
0.0
230
1.0
 70
    11
 71
     3
 72
    89
 73
    85
 74
     0
 42
0.0000000001
 43
0.0000000001
 40
0.0
 40
0.0
 40
0.0
 40
0.0
 40
1.0
 40
1.0
 40
1.0
 40
2.0
 40
2.0
 40
2.0
 40
3.0
 40
3.0
 40
3.0
 40
4.0
 40
4.0
 40
4.0
 40
5.0
 40
5.0
 40
5.0
 40
6.0
 40
6.0
 40
6.0
 40
7.0
 40
7.0
 40
7.0
 40
8.0
 40
8.0
 40
8.0
 40
9.0
 40
9.0
 40
9.0
 40
10.0
 40
10.0
 40
10.0
 40
11.0
 40
11.0
 40
11.0
 40
12.0
 40
12.0
 40
12.0
 40
13.0
 40
13.0
 40
13.0
 40
14.0
 40
14.0
 40
14.0
 40
15.0
 40
15.0
 40
15.0
 40
16.0
 40
16.0
 40
16.0
 40
17.0
 40
17.0
 40
17.0
 40
18.0
 40
18.0
 40
18.0
 40
19.0
 40
19.0
 40
19.0
 40
20.0
 40
20.0
 40
20.0
 40
21.0
 40
21.0
 40
21.0
 40
22.0
 40
22.0
 40
22.0
 40
23.0
 40
23.0
 40
23.0
 40
24.0
 40
24.0
 40
24.0
 40
25.0
 40
25.0
 40
25.0
 40
26.0
 40
26.0
 40
26.0
 40
27.0
 40
27.0
 40
27.0
 40
28.0
 40
28.0
 40
28.0
 40
28.0
 10
11.43069872714688
 20
16.84765379672364
 30
0.0
 10
11.42417474280996
 20
16.84056015055272
 30
0.0
 10
11.41778639224303
 20
16.82612871742488
 30
0.0
 10
11.41708787832754
 20
16.81653940988599
 30
0.0
 10
11.41708787832754
 20
16.81653940988599
 30
0.0
 10
11.37097917821655
 20
16.48903810884763
 30
0.0
 10
11.37097917821655
 20
16.48903810884763
 30
0.0
 10
11.36917524907557
 20
16.47959799845574
 30
0.0
 10
11.37125722744504
 20
16.46404080503691
 30
0.0
 10
11.3755635996425
 20
16.45542806064201
 30
0.0
 10
11.38528854095139
 20
16.43570691048422
 30
0.0
 10
11.38111780252394
 20
16.40668128370455
 30
0.0
 10
11.3663947567906
 20
16.39028316091173
 30
0.0
 10
11.34431357903484
 20
16.36348192796003
 30
0.0
 10
11.30459322949079
 20
16.35958923876107
 30
0.0
 10
11.27778521485059
 20
16.38168397989383
 30
0.0
 10
11.27070513205666
 20
16.38820796423075
 30
0.0
 10
11.25639576932182
 20
16.39459631479768
 30
0.0
 10
11.24681324347143
 20
16.39542368079467
 30
0.0
 10
11.24681324347143
 20
16.39542368079467
 30
0.0
 10
10.17695441078883
 20
16.545705897953
 30
0.0
 10
10.17695441078883
 20
16.545705897953
 30
0.0
 10
10.16750751870843
 20
16.54750982709398
 30
0.0
 10
10.1519503252896
 20
16.54542106703601
 30
0.0
 10
10.1433375808947
 20
16.54112147652705
 30
0.0
 10
10.12361643073692
 20
16.53139653521816
 30
0.0
 10
10.09459080395724
 20
16.53556049195711
 30
0.0
 10
10.07819946285292
 20
16.55029031937895
 30
0.0
 10
10.05139822990122
 20
16.5723714971347
 30
0.0
 10
10.04750554070227
 20
16.61209862836726
 30
0.0
 10
10.06972913391652
 20
16.63889986131896
 30
0.0
 10
10.07625989994195
 20
16.64597994411289
 30
0.0
 10
10.08250583505038
 20
16.66028930684773
 30
0.0
 10
10.08333998273587
 20
16.66987861438662
 30
0.0
 10
10.08333998273587
 20
16.66987861438662
 30
0.0
 10
10.12931304907686
 20
16.99765118296498
 30
0.0
 10
10.12931304907686
 20
16.99765118296498
 30
0.0
 10
10.13125939367633
 20
17.00695565958687
 30
0.0
 10
10.12917063361836
 20
17.0225128530057
 30
0.0
 10
10.1248710431094
 20
17.0311255974006
 30
0.0
 10
10.11861832631248
 20
17.04348183384747
 30
0.0
 10
10.11778417862698
 20
17.06431518091923
 30
0.0
 10
10.12320274773842
 20
17.07709188205309
 30
0.0
 10
10.1347316181883
 20
17.10987456426173
 30
0.0
 10
10.1707016939919
 20
17.12710005305154
 30
0.0
 10
10.20347759451203
 20
17.11557118260167
 30
0.0
 10
10.21723085878988
 20
17.10987456426173
 30
0.0
 10
10.23931203654563
 20
17.11125802871571
 30
0.0
 10
10.25223115313799
 20
17.11875857619663
 30
0.0
 10
10.26153562975989
 20
17.12403472984957
 30
0.0
 10
10.2784762876327
 20
17.12681522213454
 30
0.0
 10
10.28903537662708
 20
17.12474002545356
 30
0.0
 10
10.28903537662708
 20
17.12474002545356
 30
0.0
 10
10.37639708788311
 20
17.1123702256297
 30
0.0
 10
10.37639708788311
 20
17.1123702256297
 30
0.0
 10
10.39125576738644
 20
17.11125802871571
 30
0.0
 10
10.41028518531723
 20
17.09987835541284
 30
0.0
 10
10.41819941579664
 20
17.08723728804898
 30
0.0
 10
10.42625606173455
 20
17.07473185445512
 30
0.0
 10
10.44528547966534
 20
17.06333861777524
 30
0.0
 10
10.46014415916868
 20
17.06209078709126
 30
0.0
 10
10.46014415916868
 20
17.06209078709126
 30
0.0
 10
11.11681505661637
 20
16.96987338686928
 30
0.0
 10
11.11681505661637
 20
16.96987338686928
 30
0.0
 10
11.13139568689121
 20
16.96695726081432
 30
0.0
 10
11.15278513241998
 20
16.97265387915425
 30
0.0
 10
11.16403595364135
 20
16.98251445423314
 30
0.0
 10
11.17514435940423
 20
16.99237502931204
 30
0.0
 10
11.19653380493299
 20
16.99807164765197
 30
0.0
 10
11.21112121689633
 20
16.995155521597
 30
0.0
 10
11.21112121689633
 20
16.995155521597
 30
0.0
 10
11.29861856192235
 20
16.98278572177314
 30
0.0
 10
11.29861856192235
 20
16.98278572177314
 30
0.0
 10
11.30931328468673
 20
16.98195835577615
 30
0.0
 10
11.32487047810556
 20
16.97459344206523
 30
0.0
 10
11.33222861012798
 20
16.96695726081432
 30
0.0
 10
11.34264528366386
 20
16.95612012259144
 30
0.0
 10
11.36347863073563
 20
16.94861957511052
 30
0.0
 10
11.37834409192747
 20
16.9504235042515
 30
0.0
 10
11.39209057451681
 20
16.95209179962248
 30
0.0
 10
11.41195414013309
 20
16.94556781528556
 30
0.0
 10
11.42209276444048
 20
16.93626333866366
 30
0.0
 10
11.44889399739218
 20
16.91418216090791
 30
0.0
 10
11.45278668659114
 20
16.87445502967535
 30
0.0
 10
11.43069872714688
 20
16.84765379672364
 30
0.0
  0
SPLINE
  5
54
330
1F
100
AcDbEntity
  8
Layer 108
370
     0
100
AcDbSpline
210
0.0
220
0.0
230
1.0
 70
    11
 71
     3
 72
    29
 73
    25
 74
     0
 42
0.0000000001
 43
0.0000000001
 40
0.0
 40
0.0
 40
0.0
 40
0.0
 40
1.0
 40
1.0
 40
1.0
 40
2.0
 40
2.0
 40
2.0
 40
3.0
 40
3.0
 40
3.0
 40
4.0
 40
4.0
 40
4.0
 40
5.0
 40
5.0
 40
5.0
 40
6.0
 40
6.0
 40
6.0
 40
7.0
 40
7.0
 40
7.0
 40
8.0
 40
8.0
 40
8.0
 40
8.0
 10
11.53292589959475
 20
17.64043318236483
 30
0.0
 10
11.53292589959475
 20
17.64043318236483
 30
0.0
 10
11.46389509235402
 20
17.14958813211729
 30
0.0
 10
11.46389509235402
 20
17.14958813211729
 30
0.0
 10
11.46181311398454
 20
17.13431576961545
 30
0.0
 10
11.44778858216669
 20
17.12376346230957
 30
0.0
 10
11.43264507174636
 20
17.12598785613755
 30
0.0
 10
11.43264507174636
 20
17.12598785613755
 30
0.0
 10
10.94181358487582
 20
17.19487624791978
 30
0.0
 10
10.94181358487582
 20
17.19487624791978
 30
0.0
 10
10.92653444068549
 20
17.19710064174776
 30
0.0
 10
10.91598213337961
 20
17.2111251735656
 30
0.0
 10
10.91806411174908
 20
17.22626190229743
 30
0.0
 10
10.91806411174908
 20
17.22626190229743
 30
0.0
 10
10.98708813730132
 20
17.71709338916797
 30
0.0
 10
10.98708813730132
 20
17.71709338916797
 30
0.0
 10
10.98917689735929
 20
17.73237931504681
 30
0.0
 10
11.00334384463564
 20
17.74293162235269
 30
0.0
 10
11.01848057336747
 20
17.74070722852471
 30
0.0
 10
11.01848057336747
 20
17.74070722852471
 30
0.0
 10
11.50931206023801
 20
17.67181883674248
 30
0.0
 10
11.50931206023801
 20
17.67181883674248
 30
0.0
 10
11.52444878896984
 20
17.66959444291451
 30
0.0
 10
11.53500787796422
 20
17.65556991109666
 30
0.0
 10
11.53292589959475
 20
17.64043318236483
 30
0.0
  0
SPLINE
  5
55
330
1F
100
AcDbEntity
  8
Layer 108
370
     0
100
AcDbSpline
210
0.0
220
0.0
230
1.0
 70
    11
 71
     3
 72
    17
 73
    13
 74
     0
 42
0.0000000001
 43
0.0000000001
 40
0.0
 40
0.0
 40
0.0
 40
0.0
 40
1.0
 40
1.0
 40
1.0
 40
2.0
 40
2.0
 40
2.0
 40
3.0
 40
3.0
 40
3.0
 40
4.0
 40
4.0
 40
4.0
 40
4.0
 10
11.87153560639598
 20
19.83834451674788
 30
0.0
 10
11.90973007602756
 20
19.83834451674788
 30
0.0
 10
11.94042399817821
 20
19.80751496082723
 30
0.0
 10
11.94042399817821
 20
19.76945612496565
 30
0.0
 10
11.94042399817821
 20
19.73140407079257
 30
0.0
 10
11.90973007602756
 20
19.70056773318342
 30
0.0
 10
11.87153560639598
 20
19.70056773318342
 30
0.0
 10
11.83334113676441
 20
19.70056773318342
 30
0.0
 10
11.80264721461375
 20
19.73140407079257
 30
0.0
 10
11.80264721461375
 20
19.76945612496565
 30
0.0
 10
11.80264721461375
 20
19.80751496082723
 30
0.0
 10
11.83334113676441
 20
19.83834451674788
 30
0.0
 10
11.87153560639598
 20
19.83834451674788
 30
0.0
  0
SPLINE
  5
56
330
1F
100
AcDbEntity
  8
Layer 108
370
     0
100
AcDbSpline
210
0.0
220
0.0
230
1.0
 70
    11
 71
     3
 72
    17
 73
    13
 74
     0
 42
0.0000000001
 43
0.0000000001
 40
0.0
 40
0.0
 40
0.0
 40
0.0
 40
1.0
 40
1.0
 40
1.0
 40
2.0
 40
2.0
 40
2.0
 40
3.0
 40
3.0
 40
3.0
 40
4.0
 40
4.0
 40
4.0
 40
4.0
 10
11.87320390176696
 20
16.33334410426636
 30
0.0
 10
11.83514506590539
 20
16.33334410426636
 30
0.0
 10
11.80431550998473
 20
16.36417366018702
 30
0.0
 10
11.80431550998473
 20
16.4022324960486
 30
0.0
 10
11.80431550998473
 20
16.44029133191017
 30
0.0
 10
11.83514506590539
 20
16.47112088783083
 30
0.0
 10
11.87320390176696
 20
16.47112088783083
 30
0.0
 10
11.91125595594004
 20
16.47112088783083
 30
0.0
 10
11.9420922935492
 20
16.44029133191017
 30
0.0
 10
11.9420922935492
 20
16.4022324960486
 30
0.0
 10
11.9420922935492
 20
16.36417366018702
 30
0.0
 10
11.91125595594004
 20
16.33334410426636
 30
0.0
 10
11.87320390176696
 20
16.33334410426636
 30
0.0
  0
SPLINE
  5
57
330
1F
100
AcDbEntity
  8
Layer 108
370
     0
100
AcDbSpline
210
0.0
220
0.0
230
1.0
 70
    11
 71
     3
 72
    23
 73
    19
 74
     0
 42
0.0000000001
 43
0.0000000001
 40
0.0
 40
0.0
 40
0.0
 40
0.0
 40
1.0
 40
1.0
 40
1.0
 40
2.0
 40
2.0
 40
2.0
 40
3.0
 40
3.0
 40
3.0
 40
4.0
 40
4.0
 40
4.0
 40
5.0
 40
5.0
 40
5.0
 40
6.0
 40
6.0
 40
6.0
 40
6.0
 10
17.06251125177825
 20
19.83834451674788
 30
0.0
 10
17.10070572140983
 20
19.83834451674788
 30
0.0
 10
17.13139964356049
 20
19.80751496082723
 30
0.0
 10
17.13139964356049
 20
19.76945612496565
 30
0.0
 10
17.13139964356049
 20
19.75890381765977
 30
0.0
 10
17.12903961596252
 20
19.74890082712238
 30
0.0
 10
17.12474002545356
 20
19.74001003349898
 30
0.0
 10
17.11376725346069
 20
19.71668102505924
 30
0.0
 10
17.09015341410395
 20
19.70056773318342
 30
0.0
 10
17.06251125177825
 20
19.70056773318342
 30
0.0
 10
17.03486908945256
 20
19.70056773318342
 30
0.0
 10
17.01125525009583
 20
19.71668102505924
 30
0.0
 10
17.00028247810295
 20
19.74001003349898
 30
0.0
 10
16.995982887594
 20
19.74890082712238
 30
0.0
 10
16.99362285999602
 20
19.75890381765977
 30
0.0
 10
16.99362285999602
 20
19.76945612496565
 30
0.0
 10
16.99362285999602
 20
19.80751496082723
 30
0.0
 10
17.02431678214668
 20
19.83834451674788
 30
0.0
 10
17.06251125177825
 20
19.83834451674788
 30
0.0
  0
SPLINE
  5
58
330
1F
100
AcDbEntity
  8
Layer 108
370
     0
100
AcDbSpline
210
0.0
220
0.0
230
1.0
 70
    11
 71
     3
 72
    29
 73
    25
 74
     0
 42
0.0000000001
 43
0.0000000001
 40
0.0
 40
0.0
 40
0.0
 40
0.0
 40
1.0
 40
1.0
 40
1.0
 40
2.0
 40
2.0
 40
2.0
 40
3.0
 40
3.0
 40
3.0
 40
4.0
 40
4.0
 40
4.0
 40
5.0
 40
5.0
 40
5.0
 40
6.0
 40
6.0
 40
6.0
 40
7.0
 40
7.0
 40
7.0
 40
8.0
 40
8.0
 40
8.0
 40
8.0
 10
16.62639442772511
 20
19.5673753710449
 30
0.0
 10
16.62639442772511
 20
19.58265451523523
 30
0.0
 10
16.63876422754897
 20
19.59515316714059
 30
0.0
 10
16.6541722238208
 20
19.59515316714059
 30
0.0
 10
16.6541722238208
 20
19.59515316714059
 30
0.0
 10
17.14973732926428
 20
19.59515316714059
 30
0.0
 10
17.14973732926428
 20
19.59515316714059
 30
0.0
 10
17.16514532553611
 20
19.59515316714059
 30
0.0
 10
17.17751512535997
 20
19.58265451523523
 30
0.0
 10
17.17751512535997
 20
19.5673753710449
 30
0.0
 10
17.17751512535997
 20
19.5673753710449
 30
0.0
 10
17.17751512535997
 20
19.07168141351991
 30
0.0
 10
17.17751512535997
 20
19.07168141351991
 30
0.0
 10
17.17751512535997
 20
19.05640226932958
 30
0.0
 10
17.16514532553611
 20
19.04390361742422
 30
0.0
 10
17.14973732926428
 20
19.04390361742422
 30
0.0
 10
17.14973732926428
 20
19.04390361742422
 30
0.0
 10
16.6541722238208
 20
19.04390361742422
 30
0.0
 10
16.6541722238208
 20
19.04390361742422
 30
0.0
 10
16.63876422754897
 20
19.04390361742422
 30
0.0
 10
16.62639442772511
 20
19.05640226932958
 30
0.0
 10
16.62639442772511
 20
19.07168141351991
 30
0.0
 10
16.62639442772511
 20
19.07168141351991
 30
0.0
 10
16.62639442772511
 20
19.5673753710449
 30
0.0
 10
16.62639442772511
 20
19.5673753710449
 30
0.0
  0
SPLINE
  5
59
330
1F
100
AcDbEntity
  8
Layer 108
370
     0
100
AcDbSpline
210
0.0
220
0.0
230
1.0
 70
    11
 71
     3
 72
    29
 73
    25
 74
     0
 42
0.0000000001
 43
0.0000000001
 40
0.0
 40
0.0
 40
0.0
 40
0.0
 40
1.0
 40
1.0
 40
1.0
 40
2.0
 40
2.0
 40
2.0
 40
3.0
 40
3.0
 40
3.0
 40
4.0
 40
4.0
 40
4.0
 40
5.0
 40
5.0
 40
5.0
 40
6.0
 40
6.0
 40
6.0
 40
7.0
 40
7.0
 40
7.0
 40
8.0
 40
8.0
 40
8.0
 40
8.0
 10
15.87681439782844
 20
19.5673753710449
 30
0.0
 10
15.87681439782844
 20
19.58265451523523
 30
0.0
 10
15.8891706342753
 20
19.59515316714059
 30
0.0
 10
15.90459219392413
 20
19.59515316714059
 30
0.0
 10
15.90459219392413
 20
19.59515316714059
 30
0.0
 10
16.40014373599062
 20
19.59515316714059
 30
0.0
 10
16.40014373599062
 20
19.59515316714059
 30
0.0
 10
16.41556529563945
 20
19.59515316714059
 30
0.0
 10
16.42792153208631
 20
19.58265451523523
 30
0.0
 10
16.42792153208631
 20
19.5673753710449
 30
0.0
 10
16.42792153208631
 20
19.5673753710449
 30
0.0
 10
16.42792153208631
 20
19.07168141351991
 30
0.0
 10
16.42792153208631
 20
19.07168141351991
 30
0.0
 10
16.42792153208631
 20
19.05640226932958
 30
0.0
 10
16.41556529563945
 20
19.04390361742422
 30
0.0
 10
16.40014373599062
 20
19.04390361742422
 30
0.0
 10
16.40014373599062
 20
19.04390361742422
 30
0.0
 10
15.90459219392413
 20
19.04390361742422
 30
0.0
 10
15.90459219392413
 20
19.04390361742422
 30
0.0
 10
15.8891706342753
 20
19.04390361742422
 30
0.0
 10
15.87681439782844
 20
19.05640226932958
 30
0.0
 10
15.87681439782844
 20
19.07168141351991
 30
0.0
 10
15.87681439782844
 20
19.07168141351991
 30
0.0
 10
15.87681439782844
 20
19.5673753710449
 30
0.0
 10
15.87681439782844
 20
19.5673753710449
 30
0.0
  0
SPLINE
  5
5A
330
1F
100
AcDbEntity
  8
Layer 108
370
     0
100
AcDbSpline
210
0.0
220
0.0
230
1.0
 70
    11
 71
     3
 72
    29
 73
    25
 74
     0
 42
0.0000000001
 43
0.0000000001
 40
0.0
 40
0.0
 40
0.0
 40
0.0
 40
1.0
 40
1.0
 40
1.0
 40
2.0
 40
2.0
 40
2.0
 40
3.0
 40
3.0
 40
3.0
 40
4.0
 40
4.0
 40
4.0
 40
5.0
 40
5.0
 40
5.0
 40
6.0
 40
6.0
 40
6.0
 40
7.0
 40
7.0
 40
7.0
 40
8.0
 40
8.0
 40
8.0
 40
8.0
 10
15.9708492905684
 20
18.81043042743732
 30
0.0
 10
15.9708492905684
 20
18.81043042743732
 30
0.0
 10
15.9708492905684
 20
18.31473646991233
 30
0.0
 10
15.9708492905684
 20
18.31473646991233
 30
0.0
 10
15.9708492905684
 20
18.299457325722
 30
0.0
 10
15.95834385697453
 20
18.28695867381664
 30
0.0
 10
15.9430714944727
 20
18.28695867381664
 30
0.0
 10
15.9430714944727
 20
18.28695867381664
 30
0.0
 10
15.44737075525922
 20
18.28695867381664
 30
0.0
 10
15.44737075525922
 20
18.28695867381664
 30
0.0
 10
15.43209839275739
 20
18.28695867381664
 30
0.0
 10
15.41959295916353
 20
18.299457325722
 30
0.0
 10
15.41959295916353
 20
18.31473646991233
 30
0.0
 10
15.41959295916353
 20
18.31473646991233
 30
0.0
 10
15.41959295916353
 20
18.81043042743732
 30
0.0
 10
15.41959295916353
 20
18.81043042743732
 30
0.0
 10
15.41959295916353
 20
18.82570957162765
 30
0.0
 10
15.43209839275739
 20
18.83820822353301
 30
0.0
 10
15.44737075525922
 20
18.83820822353301
 30
0.0
 10
15.44737075525922
 20
18.83820822353301
 30
0.0
 10
15.9430714944727
 20
18.83820822353301
 30
0.0
 10
15.9430714944727
 20
18.83820822353301
 30
0.0
 10
15.95834385697453
 20
18.83820822353301
 30
0.0
 10
15.9708492905684
 20
18.82570957162765
 30
0.0
 10
15.9708492905684
 20
18.81043042743732
 30
0.0
  0
SPLINE
  5
5B
330
1F
100
AcDbEntity
  8
Layer 108
370
     0
100
AcDbSpline
210
0.0
220
0.0
230
1.0
 70
    11
 71
     3
 72
    29
 73
    25
 74
     0
 42
0.0000000001
 43
0.0000000001
 40
0.0
 40
0.0
 40
0.0
 40
0.0
 40
1.0
 40
1.0
 40
1.0
 40
2.0
 40
2.0
 40
2.0
 40
3.0
 40
3.0
 40
3.0
 40
4.0
 40
4.0
 40
4.0
 40
5.0
 40
5.0
 40
5.0
 40
6.0
 40
6.0
 40
6.0
 40
7.0
 40
7.0
 40
7.0
 40
8.0
 40
8.0
 40
8.0
 40
8.0
 10
15.12737000170177
 20
19.5673753710449
 30
0.0
 10
15.12737000170177
 20
19.58265451523523
 30
0.0
 10
15.13972623814864
 20
19.59515316714059
 30
0.0
 10
15.15514779779746
 20
19.59515316714059
 30
0.0
 10
15.15514779779746
 20
19.59515316714059
 30
0.0
 10
15.65069933986396
 20
19.59515316714059
 30
0.0
 10
15.65069933986396
 20
19.59515316714059
 30
0.0
 10
15.66612089951278
 20
19.59515316714059
 30
0.0
 10
15.67847713595965
 20
19.58265451523523
 30
0.0
 10
15.67847713595965
 20
19.5673753710449
 30
0.0
 10
15.67847713595965
 20
19.5673753710449
 30
0.0
 10
15.67847713595965
 20
19.07168141351991
 30
0.0
 10
15.67847713595965
 20
19.07168141351991
 30
0.0
 10
15.67847713595965
 20
19.05640226932958
 30
0.0
 10
15.66612089951278
 20
19.04390361742422
 30
0.0
 10
15.65069933986396
 20
19.04390361742422
 30
0.0
 10
15.65069933986396
 20
19.04390361742422
 30
0.0
 10
15.15514779779746
 20
19.04390361742422
 30
0.0
 10
15.15514779779746
 20
19.04390361742422
 30
0.0
 10
15.13972623814864
 20
19.04390361742422
 30
0.0
 10
15.12737000170177
 20
19.05640226932958
 30
0.0
 10
15.12737000170177
 20
19.07168141351991
 30
0.0
 10
15.12737000170177
 20
19.07168141351991
 30
0.0
 10
15.12737000170177
 20
19.5673753710449
 30
0.0
 10
15.12737000170177
 20
19.5673753710449
 30
0.0
  0
SPLINE
  5
5C
330
1F
100
AcDbEntity
  8
Layer 108
370
     0
100
AcDbSpline
210
0.0
220
0.0
230
1.0
 70
    11
 71
     3
 72
    29
 73
    25
 74
     0
 42
0.0000000001
 43
0.0000000001
 40
0.0
 40
0.0
 40
0.0
 40
0.0
 40
1.0
 40
1.0
 40
1.0
 40
2.0
 40
2.0
 40
2.0
 40
3.0
 40
3.0
 40
3.0
 40
4.0
 40
4.0
 40
4.0
 40
5.0
 40
5.0
 40
5.0
 40
6.0
 40
6.0
 40
6.0
 40
7.0
 40
7.0
 40
7.0
 40
8.0
 40
8.0
 40
8.0
 40
8.0
 10
15.14778288408655
 20
18.82445495925516
 30
0.0
 10
15.14778288408655
 20
18.82445495925516
 30
0.0
 10
15.21682047301578
 20
18.33362347238462
 30
0.0
 10
15.21682047301578
 20
18.33362347238462
 30
0.0
 10
15.21889566969676
 20
18.31834432819429
 30
0.0
 10
15.20834336239087
 20
18.30431979637644
 30
0.0
 10
15.19307099988904
 20
18.30223103631847
 30
0.0
 10
15.19307099988904
 20
18.30223103631847
 30
0.0
 10
14.7023751467885
 20
18.23320701076624
 30
0.0
 10
14.7023751467885
 20
18.23320701076624
 30
0.0
 10
14.68708922090967
 20
18.23112503239676
 30
0.0
 10
14.67306468909183
 20
18.24167733970264
 30
0.0
 10
14.67097592903385
 20
18.25682085012297
 30
0.0
 10
14.67097592903385
 20
18.25682085012297
 30
0.0
 10
14.60195190348162
 20
18.74765233699351
 30
0.0
 10
14.60195190348162
 20
18.74765233699351
 30
0.0
 10
14.59972750965364
 20
18.76293148118384
 30
0.0
 10
14.61042901410652
 20
18.77695601300169
 30
0.0
 10
14.62556574283835
 20
18.77903799137117
 30
0.0
 10
14.62556574283835
 20
18.77903799137117
 30
0.0
 10
15.1163972297089
 20
18.8480687986119
 30
0.0
 10
15.1163972297089
 20
18.8480687986119
 30
0.0
 10
15.13153395844073
 20
18.85015077698138
 30
0.0
 10
15.14570768740557
 20
18.83959846967549
 30
0.0
 10
15.14778288408655
 20
18.82445495925516
 30
0.0
  0
SPLINE
  5
5D
330
1F
100
AcDbEntity
  8
Layer 108
370
     0
100
AcDbSpline
210
0.0
220
0.0
230
1.0
 70
    11
 71
     3
 72
    29
 73
    25
 74
     0
 42
0.0000000001
 43
0.0000000001
 40
0.0
 40
0.0
 40
0.0
 40
0.0
 40
1.0
 40
1.0
 40
1.0
 40
2.0
 40
2.0
 40
2.0
 40
3.0
 40
3.0
 40
3.0
 40
4.0
 40
4.0
 40
4.0
 40
5.0
 40
5.0
 40
5.0
 40
6.0
 40
6.0
 40
6.0
 40
7.0
 40
7.0
 40
7.0
 40
8.0
 40
8.0
 40
8.0
 40
8.0
 10
14.33639454520157
 20
19.49584890243619
 30
0.0
 10
14.33639454520157
 20
19.49584890243619
 30
0.0
 10
14.82722603207211
 20
19.56473729421843
 30
0.0
 10
14.82722603207211
 20
19.56473729421843
 30
0.0
 10
14.84237632418094
 20
19.5669549063579
 30
0.0
 10
14.85653648976879
 20
19.55640259905202
 30
0.0
 10
14.85862524982676
 20
19.54112345486169
 30
0.0
 10
14.85862524982676
 20
19.54112345486169
 30
0.0
 10
14.92764927537899
 20
19.05029196799115
 30
0.0
 10
14.92764927537899
 20
19.05029196799115
 30
0.0
 10
14.92973803543697
 20
19.03514845757082
 30
0.0
 10
14.91917216475409
 20
19.02112392575297
 30
0.0
 10
14.90389980225226
 20
19.018899531925
 30
0.0
 10
14.90389980225226
 20
19.018899531925
 30
0.0
 10
14.41320394915172
 20
18.95001114014276
 30
0.0
 10
14.41320394915172
 20
18.95001114014276
 30
0.0
 10
14.39793158664989
 20
18.94779352800329
 30
0.0
 10
14.38389349145504
 20
18.95834583530917
 30
0.0
 10
14.38181829477407
 20
18.9736249794995
 30
0.0
 10
14.38181829477407
 20
18.9736249794995
 30
0.0
 10
14.31278070584483
 20
19.46445646637005
 30
0.0
 10
14.31278070584483
 20
19.46445646637005
 30
0.0
 10
14.31070550916386
 20
19.47959319510187
 30
0.0
 10
14.32125781646974
 20
19.49362450860822
 30
0.0
 10
14.33639454520157
 20
19.49584890243619
 30
0.0
  0
SPLINE
  5
5E
330
1F
100
AcDbEntity
  8
Layer 108
370
     0
100
AcDbSpline
210
0.0
220
0.0
230
1.0
 70
    11
 71
     3
 72
    29
 73
    25
 74
     0
 42
0.0000000001
 43
0.0000000001
 40
0.0
 40
0.0
 40
0.0
 40
0.0
 40
1.0
 40
1.0
 40
1.0
 40
2.0
 40
2.0
 40
2.0
 40
3.0
 40
3.0
 40
3.0
 40
4.0
 40
4.0
 40
4.0
 40
5.0
 40
5.0
 40
5.0
 40
6.0
 40
6.0
 40
6.0
 40
7.0
 40
7.0
 40
7.0
 40
8.0
 40
8.0
 40
8.0
 40
8.0
 10
14.4509779540963
 20
18.19792866718963
 30
0.0
 10
14.4509779540963
 20
18.19792866718963
 30
0.0
 10
13.96014646722575
 20
18.1288978599489
 30
0.0
 10
13.96014646722575
 20
18.1288978599489
 30
0.0
 10
13.94500973849392
 20
18.12681588157942
 30
0.0
 10
13.93098520667608
 20
18.1373749705738
 30
0.0
 10
13.9287608128481
 20
18.15251169930563
 30
0.0
 10
13.9287608128481
 20
18.15251169930563
 30
0.0
 10
13.85973678729587
 20
18.64334318617617
 30
0.0
 10
13.85973678729587
 20
18.64334318617617
 30
0.0
 10
13.85764802723789
 20
18.65862233036651
 30
0.0
 10
13.86820033454378
 20
18.67265364387285
 30
0.0
 10
13.88348626042261
 20
18.67473562224233
 30
0.0
 10
13.88348626042261
 20
18.67473562224233
 30
0.0
 10
14.37431774729315
 20
18.74375964779456
 30
0.0
 10
14.37431774729315
 20
18.74375964779456
 30
0.0
 10
14.38945447602498
 20
18.74584840785253
 30
0.0
 10
14.40347900784282
 20
18.73528931885815
 30
0.0
 10
14.4057034016708
 20
18.72015259012632
 30
0.0
 10
14.4057034016708
 20
18.72015259012632
 30
0.0
 10
14.47459179345303
 20
18.22931432156728
 30
0.0
 10
14.47459179345303
 20
18.22931432156728
 30
0.0
 10
14.47681618728101
 20
18.21404195906545
 30
0.0
 10
14.46611468282813
 20
18.2000106455591
 30
0.0
 10
14.4509779540963
 20
18.19792866718963
 30
0.0
  0
SPLINE
  5
5F
330
1F
100
AcDbEntity
  8
Layer 108
370
     0
100
AcDbSpline
210
0.0
220
0.0
230
1.0
 70
    11
 71
     3
 72
    29
 73
    25
 74
     0
 42
0.0000000001
 43
0.0000000001
 40
0.0
 40
0.0
 40
0.0
 40
0.0
 40
1.0
 40
1.0
 40
1.0
 40
2.0
 40
2.0
 40
2.0
 40
3.0
 40
3.0
 40
3.0
 40
4.0
 40
4.0
 40
4.0
 40
5.0
 40
5.0
 40
5.0
 40
6.0
 40
6.0
 40
6.0
 40
7.0
 40
7.0
 40
7.0
 40
8.0
 40
8.0
 40
8.0
 40
8.0
 10
13.59333849964183
 20
19.39070560393336
 30
0.0
 10
13.59333849964183
 20
19.39070560393336
 30
0.0
 10
14.08416998651238
 20
19.4595939957156
 30
0.0
 10
14.08416998651238
 20
19.4595939957156
 30
0.0
 10
14.09932027862121
 20
19.46181838954357
 30
0.0
 10
14.11348044420905
 20
19.45126608223769
 30
0.0
 10
14.11556920426703
 20
19.43598693804736
 30
0.0
 10
14.11556920426703
 20
19.43598693804736
 30
0.0
 10
14.18459322981926
 20
18.94514866948832
 30
0.0
 10
14.18459322981926
 20
18.94514866948832
 30
0.0
 10
14.18668198987724
 20
18.93001194075649
 30
0.0
 10
14.17611611919435
 20
18.91598740893864
 30
0.0
 10
14.16084375669252
 20
18.91376301511067
 30
0.0
 10
14.16084375669252
 20
18.91376301511067
 30
0.0
 10
13.67014790359198
 20
18.84487462332843
 30
0.0
 10
13.67014790359198
 20
18.84487462332843
 30
0.0
 10
13.65487554109015
 20
18.84265022950046
 30
0.0
 10
13.64083744589531
 20
18.85320931849484
 30
0.0
 10
13.63876224921433
 20
18.86848168099667
 30
0.0
 10
13.63876224921433
 20
18.86848168099667
 30
0.0
 10
13.5697246602851
 20
19.35931994955571
 30
0.0
 10
13.5697246602851
 20
19.35931994955571
 30
0.0
 10
13.56764946360412
 20
19.37445667828754
 30
0.0
 10
13.57820177091
 20
19.38848799179389
 30
0.0
 10
13.59333849964183
 20
19.39070560393336
 30
0.0
  0
SPLINE
  5
60
330
1F
100
AcDbEntity
  8
Layer 108
370
     0
100
AcDbSpline
210
0.0
220
0.0
230
1.0
 70
    11
 71
     3
 72
    29
 73
    25
 74
     0
 42
0.0000000001
 43
0.0000000001
 40
0.0
 40
0.0
 40
0.0
 40
0.0
 40
1.0
 40
1.0
 40
1.0
 40
2.0
 40
2.0
 40
2.0
 40
3.0
 40
3.0
 40
3.0
 40
4.0
 40
4.0
 40
4.0
 40
5.0
 40
5.0
 40
5.0
 40
6.0
 40
6.0
 40
6.0
 40
7.0
 40
7.0
 40
7.0
 40
8.0
 40
8.0
 40
8.0
 40
8.0
 10
12.87445239189583
 20
17.77612120587132
 30
0.0
 10
12.87445239189583
 20
17.77612120587132
 30
0.0
 10
13.36528387876637
 20
17.84514523142355
 30
0.0
 10
13.36528387876637
 20
17.84514523142355
 30
0.0
 10
13.3804206074982
 20
17.84723399148153
 30
0.0
 10
13.39445870269305
 20
17.83668168417564
 30
0.0
 10
13.39666953314402
 20
17.82154495544381
 30
0.0
 10
13.39666953314402
 20
17.82154495544381
 30
0.0
 10
13.46555792492626
 20
17.33069990519627
 30
0.0
 10
13.46555792492626
 20
17.33069990519627
 30
0.0
 10
13.46778231875423
 20
17.31542754269444
 30
0.0
 10
13.45709437767835
 20
17.3014030108766
 30
0.0
 10
13.44195764894652
 20
17.29931425081862
 30
0.0
 10
13.44195764894652
 20
17.29931425081862
 30
0.0
 10
12.95112616207598
 20
17.23029022526639
 30
0.0
 10
12.95112616207598
 20
17.23029022526639
 30
0.0
 10
12.93597586996714
 20
17.22820146520841
 30
0.0
 10
12.9219513381493
 20
17.2387673358913
 30
0.0
 10
12.91972694432132
 20
17.25390406462312
 30
0.0
 10
12.91972694432132
 20
17.25390406462312
 30
0.0
 10
12.85070291876909
 20
17.74473555149367
 30
0.0
 10
12.85070291876909
 20
17.74473555149367
 30
0.0
 10
12.84861415871111
 20
17.7598722802255
 30
0.0
 10
12.859180029394
 20
17.77404600919034
 30
0.0
 10
12.87445239189583
 20
17.77612120587132
 30
0.0
  0
SPLINE
  5
61
330
1F
100
AcDbEntity
  8
Layer 108
370
     0
100
AcDbSpline
210
0.0
220
0.0
230
1.0
 70
    11
 71
     3
 72
    29
 73
    25
 74
     0
 42
0.0000000001
 43
0.0000000001
 40
0.0
 40
0.0
 40
0.0
 40
0.0
 40
1.0
 40
1.0
 40
1.0
 40
2.0
 40
2.0
 40
2.0
 40
3.0
 40
3.0
 40
3.0
 40
4.0
 40
4.0
 40
4.0
 40
5.0
 40
5.0
 40
5.0
 40
6.0
 40
6.0
 40
6.0
 40
7.0
 40
7.0
 40
7.0
 40
8.0
 40
8.0
 40
8.0
 40
8.0
 10
12.47570267147726
 20
17.92028634000271
 30
0.0
 10
12.46043030897543
 20
17.91821114332174
 30
0.0
 10
12.44639221378059
 20
17.92876345062762
 30
0.0
 10
12.44431701709961
 20
17.94390017935945
 30
0.0
 10
12.44431701709961
 20
17.94390017935945
 30
0.0
 10
12.37527942817038
 20
18.43473166622999
 30
0.0
 10
12.37527942817038
 20
18.43473166622999
 30
0.0
 10
12.3732042314894
 20
18.45001081042032
 30
0.0
 10
12.38375653879529
 20
18.46404212392667
 30
0.0
 10
12.39889326752712
 20
18.46612410229615
 30
0.0
 10
12.39889326752712
 20
18.46612410229615
 30
0.0
 10
12.88972475439766
 20
18.53514812784838
 30
0.0
 10
12.88972475439766
 20
18.53514812784838
 30
0.0
 10
12.90501068027649
 20
18.53723688790636
 30
0.0
 10
12.91903521209433
 20
18.52667779891197
 30
0.0
 10
12.92112397215231
 20
18.51154107018014
 30
0.0
 10
12.92112397215231
 20
18.51154107018014
 30
0.0
 10
12.99014799770454
 20
18.0207095833096
 30
0.0
 10
12.99014799770454
 20
18.0207095833096
 30
0.0
 10
12.99223675776252
 20
18.00556607288927
 30
0.0
 10
12.98167088707964
 20
17.99139912561293
 30
0.0
 10
12.9665341583478
 20
17.98932392893195
 30
0.0
 10
12.9665341583478
 20
17.98932392893195
 30
0.0
 10
12.47570267147726
 20
17.92028634000271
 30
0.0
 10
12.47570267147726
 20
17.92028634000271
 30
0.0
  0
SPLINE
  5
62
330
1F
100
AcDbEntity
  8
Layer 108
370
     0
100
AcDbSpline
210
0.0
220
0.0
230
1.0
 70
    11
 71
     3
 72
    29
 73
    25
 74
     0
 42
0.0000000001
 43
0.0000000001
 40
0.0
 40
0.0
 40
0.0
 40
0.0
 40
1.0
 40
1.0
 40
1.0
 40
2.0
 40
2.0
 40
2.0
 40
3.0
 40
3.0
 40
3.0
 40
4.0
 40
4.0
 40
4.0
 40
5.0
 40
5.0
 40
5.0
 40
6.0
 40
6.0
 40
6.0
 40
7.0
 40
7.0
 40
7.0
 40
8.0
 40
8.0
 40
8.0
 40
8.0
 10
13.21793135104001
 20
18.02459549082005
 30
0.0
 10
13.20278105893118
 20
18.02251351245058
 30
0.0
 10
13.18862089334334
 20
18.03306581975646
 30
0.0
 10
13.18653213328536
 20
18.04820933017679
 30
0.0
 10
13.18653213328536
 20
18.04820933017679
 30
0.0
 10
13.11750810773313
 20
18.53904081704734
 30
0.0
 10
13.11750810773313
 20
18.53904081704734
 30
0.0
 10
13.11541934767515
 20
18.55431996123766
 30
0.0
 10
13.12598521835803
 20
18.56834449305551
 30
0.0
 10
13.14125758085986
 20
18.57042647142499
 30
0.0
 10
13.14125758085986
 20
18.57042647142499
 30
0.0
 10
13.6319534339604
 20
18.63945727866572
 30
0.0
 10
13.6319534339604
 20
18.63945727866572
 30
0.0
 10
13.64722579646224
 20
18.64153925703519
 30
0.0
 10
13.66126389165708
 20
18.63098694972931
 30
0.0
 10
13.66333908833806
 20
18.61584343930898
 30
0.0
 10
13.66333908833806
 20
18.61584343930898
 30
0.0
 10
13.73237667726729
 20
18.12501195243844
 30
0.0
 10
13.73237667726729
 20
18.12501195243844
 30
0.0
 10
13.73445187394826
 20
18.10973280824811
 30
0.0
 10
13.72389956664238
 20
18.09570827643027
 30
0.0
 10
13.70876283791055
 20
18.09362629806079
 30
0.0
 10
13.70876283791055
 20
18.09362629806079
 30
0.0
 10
13.21793135104001
 20
18.02459549082005
 30
0.0
 10
13.21793135104001
 20
18.02459549082005
 30
0.0
  0
SPLINE
  5
63
330
1F
100
AcDbEntity
  8
Layer 108
370
     0
100
AcDbSpline
210
0.0
220
0.0
230
1.0
 70
    11
 71
     3
 72
    29
 73
    25
 74
     0
 42
0.0000000001
 43
0.0000000001
 40
0.0
 40
0.0
 40
0.0
 40
0.0
 40
1.0
 40
1.0
 40
1.0
 40
2.0
 40
2.0
 40
2.0
 40
3.0
 40
3.0
 40
3.0
 40
4.0
 40
4.0
 40
4.0
 40
5.0
 40
5.0
 40
5.0
 40
6.0
 40
6.0
 40
6.0
 40
7.0
 40
7.0
 40
7.0
 40
8.0
 40
8.0
 40
8.0
 40
8.0
 10
12.85139465099608
 20
19.28653886857452
 30
0.0
 10
12.85139465099608
 20
19.28653886857452
 30
0.0
 10
13.34209050409663
 20
19.35556967581525
 30
0.0
 10
13.34209050409663
 20
19.35556967581525
 30
0.0
 10
13.35737642997546
 20
19.35765165418473
 30
0.0
 10
13.3714009617933
 20
19.34709934687885
 30
0.0
 10
13.37347615847428
 20
19.33195583645852
 30
0.0
 10
13.37347615847428
 20
19.33195583645852
 30
0.0
 10
13.44251374740351
 20
18.84112434958798
 30
0.0
 10
13.44251374740351
 20
18.84112434958798
 30
0.0
 10
13.44472457785449
 20
18.82598762085614
 30
0.0
 10
13.43403663677861
 20
18.8118206735798
 30
0.0
 10
13.41889990804677
 20
18.80973191352182
 30
0.0
 10
13.41889990804677
 20
18.80973191352182
 30
0.0
 10
12.92806842117623
 20
18.74070788796959
 30
0.0
 10
12.92806842117623
 20
18.74070788796959
 30
0.0
 10
12.9129316924444
 20
18.73862590960012
 30
0.0
 10
12.89875796347956
 20
18.749178216906
 30
0.0
 10
12.89666920342158
 20
18.76445736109633
 30
0.0
 10
12.89666920342158
 20
18.76445736109633
 30
0.0
 10
12.82764517786935
 20
19.25515321419687
 30
0.0
 10
12.82764517786935
 20
19.25515321419687
 30
0.0
 10
12.82556998118837
 20
19.2704323583872
 30
0.0
 10
12.83612228849425
 20
19.28445689020505
 30
0.0
 10
12.85139465099608
 20
19.28653886857452
 30
0.0
  0
SPLINE
  5
64
330
1F
100
AcDbEntity
  8
Layer 108
370
     0
100
AcDbSpline
210
0.0
220
0.0
230
1.0
 70
    11
 71
     3
 72
    29
 73
    25
 74
     0
 42
0.0000000001
 43
0.0000000001
 40
0.0
 40
0.0
 40
0.0
 40
0.0
 40
1.0
 40
1.0
 40
1.0
 40
2.0
 40
2.0
 40
2.0
 40
3.0
 40
3.0
 40
3.0
 40
4.0
 40
4.0
 40
4.0
 40
5.0
 40
5.0
 40
5.0
 40
6.0
 40
6.0
 40
6.0
 40
7.0
 40
7.0
 40
7.0
 40
8.0
 40
8.0
 40
8.0
 40
8.0
 10
12.10917953481034
 20
19.18223649944568
 30
0.0
 10
12.10917953481034
 20
19.18223649944568
 30
0.0
 10
12.60001102168088
 20
19.25126052499791
 30
0.0
 10
12.60001102168088
 20
19.25126052499791
 30
0.0
 10
12.61514775041271
 20
19.25348491882589
 30
0.0
 10
12.62917228223056
 20
19.24279019606151
 30
0.0
 10
12.63139667605853
 20
19.22765346732968
 30
0.0
 10
12.63139667605853
 20
19.22765346732968
 30
0.0
 10
12.70028506784077
 20
18.73681519877064
 30
0.0
 10
12.70028506784077
 20
18.73681519877064
 30
0.0
 10
12.70250946166874
 20
18.7216784700388
 30
0.0
 10
12.69180795721586
 20
18.70765393822096
 30
0.0
 10
12.67667122848403
 20
18.70542954439298
 30
0.0
 10
12.67667122848403
 20
18.70542954439298
 30
0.0
 10
12.18583974161349
 20
18.63639873715225
 30
0.0
 10
12.18583974161349
 20
18.63639873715225
 30
0.0
 10
12.17070301288165
 20
18.63431675878277
 30
0.0
 10
12.15667848106381
 20
18.64487584777716
 30
0.0
 10
12.15445408723584
 20
18.66014821027899
 30
0.0
 10
12.15445408723584
 20
18.66014821027899
 30
0.0
 10
12.0854300616836
 20
19.15098647883803
 30
0.0
 10
12.0854300616836
 20
19.15098647883803
 30
0.0
 10
12.08334130162563
 20
19.16612320756986
 30
0.0
 10
12.09389360893151
 20
19.1801545210762
 30
0.0
 10
12.10917953481034
 20
19.18223649944568
 30
0.0
  0
SPLINE
  5
65
330
1F
100
AcDbEntity
  8
Layer 108
370
     0
100
AcDbSpline
210
0.0
220
0.0
230
1.0
 70
    11
 71
     3
 72
    29
 73
    25
 74
     0
 42
0.0000000001
 43
0.0000000001
 40
0.0
 40
0.0
 40
0.0
 40
0.0
 40
1.0
 40
1.0
 40
1.0
 40
2.0
 40
2.0
 40
2.0
 40
3.0
 40
3.0
 40
3.0
 40
4.0
 40
4.0
 40
4.0
 40
5.0
 40
5.0
 40
5.0
 40
6.0
 40
6.0
 40
6.0
 40
7.0
 40
7.0
 40
7.0
 40
8.0
 40
8.0
 40
8.0
 40
8.0
 10
12.17751182813558
 20
17.14958813211729
 30
0.0
 10
12.17751182813558
 20
17.14958813211729
 30
0.0
 10
12.10862343635334
 20
17.64043318236483
 30
0.0
 10
12.10862343635334
 20
17.64043318236483
 30
0.0
 10
12.10639904252537
 20
17.65556991109666
 30
0.0
 10
12.11708698360125
 20
17.66959444291451
 30
0.0
 10
12.13222371233308
 20
17.67181883674248
 30
0.0
 10
12.13222371233308
 20
17.67181883674248
 30
0.0
 10
12.62306876258062
 20
17.74070722852471
 30
0.0
 10
12.62306876258062
 20
17.74070722852471
 30
0.0
 10
12.63820549131245
 20
17.74293162235269
 30
0.0
 10
12.6522300231303
 20
17.73237931504681
 30
0.0
 10
12.65445441695828
 20
17.71709338916797
 30
0.0
 10
12.65445441695828
 20
17.71709338916797
 30
0.0
 10
12.72334280874051
 20
17.22626190229743
 30
0.0
 10
12.72334280874051
 20
17.22626190229743
 30
0.0
 10
12.72556720256848
 20
17.2111251735656
 30
0.0
 10
12.7150148952626
 20
17.19710064174776
 30
0.0
 10
12.69972896938377
 20
17.19487624791978
 30
0.0
 10
12.69972896938377
 20
17.19487624791978
 30
0.0
 10
12.20889748251323
 20
17.12598785613755
 30
0.0
 10
12.20889748251323
 20
17.12598785613755
 30
0.0
 10
12.1937607537814
 20
17.12376346230957
 30
0.0
 10
12.17973622196355
 20
17.13445140338546
 30
0.0
 10
12.17751182813558
 20
17.14958813211729
 30
0.0
  0
SPLINE
  5
66
330
1F
100
AcDbEntity
  8
Layer 108
370
     0
100
AcDbSpline
210
0.0
220
0.0
230
1.0
 70
    11
 71
     3
 72
    89
 73
    85
 74
     0
 42
0.0000000001
 43
0.0000000001
 40
0.0
 40
0.0
 40
0.0
 40
0.0
 40
1.0
 40
1.0
 40
1.0
 40
2.0
 40
2.0
 40
2.0
 40
3.0
 40
3.0
 40
3.0
 40
4.0
 40
4.0
 40
4.0
 40
5.0
 40
5.0
 40
5.0
 40
6.0
 40
6.0
 40
6.0
 40
7.0
 40
7.0
 40
7.0
 40
8.0
 40
8.0
 40
8.0
 40
9.0
 40
9.0
 40
9.0
 40
10.0
 40
10.0
 40
10.0
 40
11.0
 40
11.0
 40
11.0
 40
12.0
 40
12.0
 40
12.0
 40
13.0
 40
13.0
 40
13.0
 40
14.0
 40
14.0
 40
14.0
 40
15.0
 40
15.0
 40
15.0
 40
16.0
 40
16.0
 40
16.0
 40
17.0
 40
17.0
 40
17.0
 40
18.0
 40
18.0
 40
18.0
 40
19.0
 40
19.0
 40
19.0
 40
20.0
 40
20.0
 40
20.0
 40
21.0
 40
21.0
 40
21.0
 40
22.0
 40
22.0
 40
22.0
 40
23.0
 40
23.0
 40
23.0
 40
24.0
 40
24.0
 40
24.0
 40
25.0
 40
25.0
 40
25.0
 40
26.0
 40
26.0
 40
26.0
 40
27.0
 40
27.0
 40
27.0
 40
28.0
 40
28.0
 40
28.0
 40
28.0
 10
13.67375576187394
 20
16.58695212740954
 30
0.0
 10
13.65986686382609
 20
16.5550103745749
 30
0.0
 10
13.62292022487851
 20
16.54042974430006
 30
0.0
 10
13.59097847204386
 20
16.5543186423479
 30
0.0
 10
13.58236572764896
 20
16.55861823285686
 30
0.0
 10
13.56680853423013
 20
16.56070699291483
 30
0.0
 10
13.55736842383823
 20
16.55876743000386
 30
0.0
 10
13.55736842383823
 20
16.55876743000386
 30
0.0
 10
12.48750280946713
 20
16.40848521284553
 30
0.0
 10
12.48750280946713
 20
16.40848521284553
 30
0.0
 10
12.47792706530524
 20
16.40764428347154
 30
0.0
 10
12.4636177025704
 20
16.40125593290461
 30
0.0
 10
12.45653761977648
 20
16.39473194856768
 30
0.0
 10
12.44015306036066
 20
16.38001568452285
 30
0.0
 10
12.41126306735098
 20
16.37598736155389
 30
0.0
 10
12.3913927200462
 20
16.38569873948578
 30
0.0
 10
12.35958660098155
 20
16.39945200376363
 30
0.0
 10
12.34487033693672
 20
16.43653427648121
 30
0.0
 10
12.35875923498456
 20
16.46848959269286
 30
0.0
 10
12.36305882549352
 20
16.47708877371076
 30
0.0
 10
12.36514758555149
 20
16.49264596712959
 30
0.0
 10
12.36334365641051
 20
16.50195044375149
 30
0.0
 10
12.36334365641051
 20
16.50195044375149
 30
0.0
 10
12.31722817461102
 20
16.82973657570684
 30
0.0
 10
12.31722817461102
 20
16.82973657570684
 30
0.0
 10
12.31653644238403
 20
16.83931231986874
 30
0.0
 10
12.3101480918171
 20
16.85362168260358
 30
0.0
 10
12.30362410748018
 20
16.8607017653975
 30
0.0
 10
12.29431963085828
 20
16.87084717139339
 30
0.0
 10
12.28778208314435
 20
16.89070395532116
 30
0.0
 10
12.28945037851533
 20
16.90445721959901
 30
0.0
 10
12.29153913857331
 20
16.93917946471863
 30
0.0
 10
12.32125649757998
 20
16.96556023298333
 30
0.0
 10
12.35597874269959
 20
16.96362067007236
 30
0.0
 10
12.37084420389143
 20
16.96181674093138
 30
0.0
 10
12.3916775509632
 20
16.96931728841229
 30
0.0
 10
12.40209422449908
 20
16.98000522948817
 30
0.0
 10
12.40945913821
 20
16.98779060788609
 30
0.0
 10
12.42500276825183
 20
16.99500632445001
 30
0.0
 10
12.43570427270471
 20
16.995982887594
 30
0.0
 10
12.43570427270471
 20
16.995982887594
 30
0.0
 10
12.52306598396074
 20
17.00820349027086
 30
0.0
 10
12.52306598396074
 20
17.00820349027086
 30
0.0
 10
12.53778224800557
 20
17.01111961632582
 30
0.0
 10
12.55903605976434
 20
17.00542299798589
 30
0.0
 10
12.57028009929721
 20
16.995562422907
 30
0.0
 10
12.58140206843709
 20
16.98570184782811
 30
0.0
 10
12.60279151396585
 20
16.98000522948817
 30
0.0
 10
12.61737214424069
 20
16.98292135554314
 30
0.0
 10
12.61737214424069
 20
16.98292135554314
 30
0.0
 10
13.27417867545838
 20
17.07528795291211
 30
0.0
 10
13.27417867545838
 20
17.07528795291211
 30
0.0
 10
13.28903057327322
 20
17.0764001498261
 30
0.0
 10
13.30792435743401
 20
17.08779338650598
 30
0.0
 10
13.31598100337192
 20
17.10043445386983
 30
0.0
 10
13.32403764930983
 20
17.11292632408669
 30
0.0
 10
13.34293143347062
 20
17.12431956076657
 30
0.0
 10
13.35778333128545
 20
17.12556739145055
 30
0.0
 10
13.35778333128545
 20
17.12556739145055
 30
0.0
 10
13.44528067631148
 20
17.13778799412742
 30
0.0
 10
13.44528067631148
 20
17.13778799412742
 30
0.0
 10
13.45584654699436
 20
17.13987675418539
 30
0.0
 10
13.47278720486717
 20
17.13709626190042
 30
0.0
 10
13.48209168148907
 20
17.13182010824749
 30
0.0
 10
13.49500401639293
 20
17.12431956076657
 30
0.0
 10
13.51709875752568
 20
17.12292253293558
 30
0.0
 10
13.53083845842653
 20
17.12861915127552
 30
0.0
 10
13.54361515956039
 20
17.13404450207546
 30
0.0
 10
13.56444850663216
 20
17.13320357270147
 30
0.0
 10
13.57681830645602
 20
17.12710005305154
 30
0.0
 10
13.60876005929066
 20
17.11321115500369
 30
0.0
 10
13.6233406895655
 20
17.0761288822861
 30
0.0
 10
13.60945179151765
 20
17.04417356607446
 30
0.0
 10
13.6051522010087
 20
17.03571001882655
 30
0.0
 10
13.60306344095073
 20
17.02015282540773
 30
0.0
 10
13.6050030038617
 20
17.01069915163883
 30
0.0
 10
13.6050030038617
 20
17.01069915163883
 30
0.0
 10
13.65098285189119
 20
16.68306221683047
 30
0.0
 10
13.65098285189119
 20
16.68306221683047
 30
0.0
 10
13.65181021788818
 20
16.67348647266858
 30
0.0
 10
13.65806293468511
 20
16.65904147616374
 30
0.0
 10
13.66458691902204
 20
16.65209702713982
 30
0.0
 10
13.67945238021388
 20
16.635698904347
 30
0.0
 10
13.68348070318283
 20
16.60667327756732
 30
0.0
 10
13.67375576187394
 20
16.58695212740954
 30
0.0
  0
SPLINE
  5
67
330
1F
100
AcDbEntity
  8
Layer 108
370
     0
100
AcDbSpline
210
0.0
220
0.0
230
1.0
 70
    11
 71
     3
 72
    29
 73
    25
 74
     0
 42
0.0000000001
 43
0.0000000001
 40
0.0
 40
0.0
 40
0.0
 40
0.0
 40
1.0
 40
1.0
 40
1.0
 40
2.0
 40
2.0
 40
2.0
 40
3.0
 40
3.0
 40
3.0
 40
4.0
 40
4.0
 40
4.0
 40
5.0
 40
5.0
 40
5.0
 40
6.0
 40
6.0
 40
6.0
 40
7.0
 40
7.0
 40
7.0
 40
8.0
 40
8.0
 40
8.0
 40
8.0
 10
13.66195562388407
 20
17.35820643375197
 30
0.0
 10
13.66195562388407
 20
17.35820643375197
 30
0.0
 10
13.59293159833184
 20
17.84903792062251
 30
0.0
 10
13.59293159833184
 20
17.84903792062251
 30
0.0
 10
13.59084283827386
 20
17.86417464935434
 30
0.0
 10
13.60139514557974
 20
17.87821274454918
 30
0.0
 10
13.61668107145857
 20
17.88042357500016
 30
0.0
 10
13.61668107145857
 20
17.88042357500016
 30
0.0
 10
14.10751255832912
 20
17.94931196678239
 30
0.0
 10
14.10751255832912
 20
17.94931196678239
 30
0.0
 10
14.12264928706095
 20
17.95153636061037
 30
0.0
 10
14.13667381887879
 20
17.94098405330449
 30
0.0
 10
14.13889821270677
 20
17.92571169080265
 30
0.0
 10
14.13889821270677
 20
17.92571169080265
 30
0.0
 10
14.207786604489
 20
17.43486664055511
 30
0.0
 10
14.207786604489
 20
17.43486664055511
 30
0.0
 10
14.21001099831698
 20
17.41972991182328
 30
0.0
 10
14.1993094938641
 20
17.40570538000544
 30
0.0
 10
14.18417276513226
 20
17.40348098617746
 30
0.0
 10
14.18417276513226
 20
17.40348098617746
 30
0.0
 10
13.69334127826172
 20
17.33459259439523
 30
0.0
 10
13.69334127826172
 20
17.33459259439523
 30
0.0
 10
13.67820454952989
 20
17.33236820056725
 30
0.0
 10
13.66418001771205
 20
17.34293407125014
 30
0.0
 10
13.66195562388407
 20
17.35820643375197
 30
0.0
  0
SPLINE
  5
68
330
1F
100
AcDbEntity
  8
Layer 108
370
     0
100
AcDbSpline
210
0.0
220
0.0
230
1.0
 70
    11
 71
     3
 72
    29
 73
    25
 74
     0
 42
0.0000000001
 43
0.0000000001
 40
0.0
 40
0.0
 40
0.0
 40
0.0
 40
1.0
 40
1.0
 40
1.0
 40
2.0
 40
2.0
 40
2.0
 40
3.0
 40
3.0
 40
3.0
 40
4.0
 40
4.0
 40
4.0
 40
5.0
 40
5.0
 40
5.0
 40
6.0
 40
6.0
 40
6.0
 40
7.0
 40
7.0
 40
7.0
 40
8.0
 40
8.0
 40
8.0
 40
8.0
 10
14.56680919367501
 20
16.70042333939028
 30
0.0
 10
14.56680919367501
 20
16.70042333939028
 30
0.0
 10
14.07597770680447
 20
16.63153494760805
 30
0.0
 10
14.07597770680447
 20
16.63153494760805
 30
0.0
 10
14.06084097807264
 20
16.62931055378007
 30
0.0
 10
14.04668081248479
 20
16.64001205823295
 30
0.0
 10
14.04459205242682
 20
16.65514878696478
 30
0.0
 10
14.04459205242682
 20
16.65514878696478
 30
0.0
 10
13.97556802687458
 20
17.14598027383533
 30
0.0
 10
13.97556802687458
 20
17.14598027383533
 30
0.0
 10
13.97347926681661
 20
17.16111700256716
 30
0.0
 10
13.98403157412249
 20
17.175155097762
 30
0.0
 10
13.99918186623132
 20
17.17736592821298
 30
0.0
 10
13.99918186623132
 20
17.17736592821298
 30
0.0
 10
14.49001335310186
 20
17.24640351714221
 30
0.0
 10
14.49001335310186
 20
17.24640351714221
 30
0.0
 10
14.50528571560369
 20
17.24847871382319
 30
0.0
 10
14.51931024742154
 20
17.2379264065173
 30
0.0
 10
14.52139900747951
 20
17.22265404401547
 30
0.0
 10
14.52139900747951
 20
17.22265404401547
 30
0.0
 10
14.59042303303175
 20
16.73182255714493
 30
0.0
 10
14.59042303303175
 20
16.73182255714493
 30
0.0
 10
14.59251179308972
 20
16.7166722650361
 30
0.0
 10
14.58195948578384
 20
16.70264773321826
 30
0.0
 10
14.56680919367501
 20
16.70042333939028
 30
0.0
  0
SPLINE
  5
69
330
1F
100
AcDbEntity
  8
Layer 108
370
     0
100
AcDbSpline
210
0.0
220
0.0
230
1.0
 70
    11
 71
     3
 72
    29
 73
    25
 74
     0
 42
0.0000000001
 43
0.0000000001
 40
0.0
 40
0.0
 40
0.0
 40
0.0
 40
1.0
 40
1.0
 40
1.0
 40
2.0
 40
2.0
 40
2.0
 40
3.0
 40
3.0
 40
3.0
 40
4.0
 40
4.0
 40
4.0
 40
5.0
 40
5.0
 40
5.0
 40
6.0
 40
6.0
 40
6.0
 40
7.0
 40
7.0
 40
7.0
 40
8.0
 40
8.0
 40
8.0
 40
8.0
 10
14.92626581092501
 20
17.5079325524533
 30
0.0
 10
14.92626581092501
 20
17.5079325524533
 30
0.0
 10
14.43542076067747
 20
17.43889496352407
 30
0.0
 10
14.43542076067747
 20
17.43889496352407
 30
0.0
 10
14.42028403194564
 20
17.43668413307309
 30
0.0
 10
14.40625950012779
 20
17.44737207414898
 30
0.0
 10
14.40403510629982
 20
17.46250880288081
 30
0.0
 10
14.40403510629982
 20
17.46250880288081
 30
0.0
 10
14.33514671451758
 20
17.95334028975135
 30
0.0
 10
14.33514671451758
 20
17.95334028975135
 30
0.0
 10
14.33292232068961
 20
17.96849058186018
 30
0.0
 10
14.34362382514249
 20
17.98265074744802
 30
0.0
 10
14.35876055387432
 20
17.984739507506
 30
0.0
 10
14.35876055387432
 20
17.984739507506
 30
0.0
 10
14.84959204074486
 20
18.05376353305823
 30
0.0
 10
14.84959204074486
 20
18.05376353305823
 30
0.0
 10
14.8647287694767
 20
18.05584551142771
 30
0.0
 10
14.87875330129454
 20
18.04528642243332
 30
0.0
 10
14.88097769512251
 20
18.0300140599315
 30
0.0
 10
14.88097769512251
 20
18.0300140599315
 30
0.0
 10
14.95001528405175
 20
17.53931820683095
 30
0.0
 10
14.95001528405175
 20
17.53931820683095
 30
0.0
 10
14.95209048073272
 20
17.52404584432912
 30
0.0
 10
14.94153817342684
 20
17.51000774913428
 30
0.0
 10
14.92626581092501
 20
17.5079325524533
 30
0.0
  0
SPLINE
  5
6A
330
1F
100
AcDbEntity
  8
Layer 108
370
     0
100
AcDbSpline
210
0.0
220
0.0
230
1.0
 70
    11
 71
     3
 72
    23
 73
    19
 74
     0
 42
0.0000000001
 43
0.0000000001
 40
0.0
 40
0.0
 40
0.0
 40
0.0
 40
1.0
 40
1.0
 40
1.0
 40
2.0
 40
2.0
 40
2.0
 40
3.0
 40
3.0
 40
3.0
 40
4.0
 40
4.0
 40
4.0
 40
5.0
 40
5.0
 40
5.0
 40
6.0
 40
6.0
 40
6.0
 40
6.0
 10
15.48765398494877
 20
16.47890626622874
 30
0.0
 10
15.47668121295589
 20
16.455563694412
 30
0.0
 10
15.45293173982915
 20
16.43945040253618
 30
0.0
 10
15.42528957750346
 20
16.43945040253618
 30
0.0
 10
15.39778304894777
 20
16.43945040253618
 30
0.0
 10
15.37403357582103
 20
16.455563694412
 30
0.0
 10
15.36306080382815
 20
16.47890626622874
 30
0.0
 10
15.3587612133192
 20
16.48779027816365
 30
0.0
 10
15.35640118572123
 20
16.49778648701253
 30
0.0
 10
15.35640118572123
 20
16.50833879431842
 30
0.0
 10
15.35640118572123
 20
16.54639763017999
 30
0.0
 10
15.38723074164188
 20
16.57722718610065
 30
0.0
 10
15.42528957750346
 20
16.57722718610065
 30
0.0
 10
15.46348404713504
 20
16.57722718610065
 30
0.0
 10
15.49431360305569
 20
16.54639763017999
 30
0.0
 10
15.49431360305569
 20
16.50833879431842
 30
0.0
 10
15.49431360305569
 20
16.49778648701253
 30
0.0
 10
15.49195357545772
 20
16.48779027816365
 30
0.0
 10
15.48765398494877
 20
16.47890626622874
 30
0.0
  0
SPLINE
  5
6B
330
1F
100
AcDbEntity
  8
Layer 108
370
     0
100
AcDbSpline
210
0.0
220
0.0
230
1.0
 70
    11
 71
     3
 72
    29
 73
    25
 74
     0
 42
0.0000000001
 43
0.0000000001
 40
0.0
 40
0.0
 40
0.0
 40
0.0
 40
1.0
 40
1.0
 40
1.0
 40
2.0
 40
2.0
 40
2.0
 40
3.0
 40
3.0
 40
3.0
 40
4.0
 40
4.0
 40
4.0
 40
5.0
 40
5.0
 40
5.0
 40
6.0
 40
6.0
 40
6.0
 40
7.0
 40
7.0
 40
7.0
 40
8.0
 40
8.0
 40
8.0
 40
8.0
 10
15.7009787784024
 20
17.55779152630475
 30
0.0
 10
15.7009787784024
 20
17.54236996665592
 30
0.0
 10
15.68848690818553
 20
17.53001373020906
 30
0.0
 10
15.6732009823067
 20
17.53001373020906
 30
0.0
 10
15.6732009823067
 20
17.53001373020906
 30
0.0
 10
15.17751380647022
 20
17.53001373020906
 30
0.0
 10
15.17751380647022
 20
17.53001373020906
 30
0.0
 10
15.16222788059139
 20
17.53001373020906
 30
0.0
 10
15.14973601037453
 20
17.54236996665592
 30
0.0
 10
15.14973601037453
 20
17.55779152630475
 30
0.0
 10
15.14973601037453
 20
17.55779152630475
 30
0.0
 10
15.14973601037453
 20
18.05334306837124
 30
0.0
 10
15.14973601037453
 20
18.05334306837124
 30
0.0
 10
15.14973601037453
 20
18.06876462802007
 30
0.0
 10
15.16222788059139
 20
18.08112086446693
 30
0.0
 10
15.17751380647022
 20
18.08112086446693
 30
0.0
 10
15.17751380647022
 20
18.08112086446693
 30
0.0
 10
15.6732009823067
 20
18.08112086446693
 30
0.0
 10
15.6732009823067
 20
18.08112086446693
 30
0.0
 10
15.68848690818553
 20
18.08112086446693
 30
0.0
 10
15.7009787784024
 20
18.06876462802007
 30
0.0
 10
15.7009787784024
 20
18.05334306837124
 30
0.0
 10
15.7009787784024
 20
18.05334306837124
 30
0.0
 10
15.7009787784024
 20
17.55779152630475
 30
0.0
 10
15.7009787784024
 20
17.55779152630475
 30
0.0
  0
SPLINE
  5
6C
330
1F
100
AcDbEntity
  8
Layer 108
370
     0
100
AcDbSpline
210
0.0
220
0.0
230
1.0
 70
    11
 71
     3
 72
    29
 73
    25
 74
     0
 42
0.0000000001
 43
0.0000000001
 40
0.0
 40
0.0
 40
0.0
 40
0.0
 40
1.0
 40
1.0
 40
1.0
 40
2.0
 40
2.0
 40
2.0
 40
3.0
 40
3.0
 40
3.0
 40
4.0
 40
4.0
 40
4.0
 40
5.0
 40
5.0
 40
5.0
 40
6.0
 40
6.0
 40
6.0
 40
7.0
 40
7.0
 40
7.0
 40
8.0
 40
8.0
 40
8.0
 40
8.0
 10
16.27681194893099
 20
16.80084658269717
 30
0.0
 10
16.27681194893099
 20
16.78542502304834
 30
0.0
 10
16.26445571248413
 20
16.77306878660147
 30
0.0
 10
16.2490341528353
 20
16.77306878660147
 30
0.0
 10
16.2490341528353
 20
16.77306878660147
 30
0.0
 10
15.75348261076881
 20
16.77306878660147
 30
0.0
 10
15.75348261076881
 20
16.77306878660147
 30
0.0
 10
15.73806105111998
 20
16.77306878660147
 30
0.0
 10
15.72570481467312
 20
16.78542502304834
 30
0.0
 10
15.72570481467312
 20
16.80084658269717
 30
0.0
 10
15.72570481467312
 20
16.80084658269717
 30
0.0
 10
15.72570481467312
 20
17.29639812476366
 30
0.0
 10
15.72570481467312
 20
17.29639812476366
 30
0.0
 10
15.72570481467312
 20
17.31181968441248
 30
0.0
 10
15.73806105111998
 20
17.32417592085935
 30
0.0
 10
15.75348261076881
 20
17.32417592085935
 30
0.0
 10
15.75348261076881
 20
17.32417592085935
 30
0.0
 10
16.2490341528353
 20
17.32417592085935
 30
0.0
 10
16.2490341528353
 20
17.32417592085935
 30
0.0
 10
16.26445571248413
 20
17.32417592085935
 30
0.0
 10
16.27681194893099
 20
17.31181968441248
 30
0.0
 10
16.27681194893099
 20
17.29639812476366
 30
0.0
 10
16.27681194893099
 20
17.29639812476366
 30
0.0
 10
16.27681194893099
 20
16.80084658269717
 30
0.0
 10
16.27681194893099
 20
16.80084658269717
 30
0.0
  0
SPLINE
  5
6D
330
1F
100
AcDbEntity
  8
Layer 108
370
     0
100
AcDbSpline
210
0.0
220
0.0
230
1.0
 70
    11
 71
     3
 72
    29
 73
    25
 74
     0
 42
0.0000000001
 43
0.0000000001
 40
0.0
 40
0.0
 40
0.0
 40
0.0
 40
1.0
 40
1.0
 40
1.0
 40
2.0
 40
2.0
 40
2.0
 40
3.0
 40
3.0
 40
3.0
 40
4.0
 40
4.0
 40
4.0
 40
5.0
 40
5.0
 40
5.0
 40
6.0
 40
6.0
 40
6.0
 40
7.0
 40
7.0
 40
7.0
 40
8.0
 40
8.0
 40
8.0
 40
8.0
 10
16.45042317452906
 20
17.55779152630475
 30
0.0
 10
16.45042317452906
 20
17.54236996665592
 30
0.0
 10
16.4380669380822
 20
17.53001373020906
 30
0.0
 10
16.42264537843337
 20
17.53001373020906
 30
0.0
 10
16.42264537843337
 20
17.53001373020906
 30
0.0
 10
15.92709383636688
 20
17.53001373020906
 30
0.0
 10
15.92709383636688
 20
17.53001373020906
 30
0.0
 10
15.91167227671805
 20
17.53001373020906
 30
0.0
 10
15.89931604027119
 20
17.54236996665592
 30
0.0
 10
15.89931604027119
 20
17.55779152630475
 30
0.0
 10
15.89931604027119
 20
17.55779152630475
 30
0.0
 10
15.89931604027119
 20
18.05334306837124
 30
0.0
 10
15.89931604027119
 20
18.05334306837124
 30
0.0
 10
15.89931604027119
 20
18.06876462802007
 30
0.0
 10
15.91167227671805
 20
18.08112086446693
 30
0.0
 10
15.92709383636688
 20
18.08112086446693
 30
0.0
 10
15.92709383636688
 20
18.08112086446693
 30
0.0
 10
16.42264537843337
 20
18.08112086446693
 30
0.0
 10
16.42264537843337
 20
18.08112086446693
 30
0.0
 10
16.4380669380822
 20
18.08112086446693
 30
0.0
 10
16.45042317452906
 20
18.06876462802007
 30
0.0
 10
16.45042317452906
 20
18.05334306837124
 30
0.0
 10
16.45042317452906
 20
18.05334306837124
 30
0.0
 10
16.45042317452906
 20
17.55779152630475
 30
0.0
 10
16.45042317452906
 20
17.55779152630475
 30
0.0
  0
SPLINE
  5
6E
330
1F
100
AcDbEntity
  8
Layer 108
370
     0
100
AcDbSpline
210
0.0
220
0.0
230
1.0
 70
    11
 71
     3
 72
    29
 73
    25
 74
     0
 42
0.0000000001
 43
0.0000000001
 40
0.0
 40
0.0
 40
0.0
 40
0.0
 40
1.0
 40
1.0
 40
1.0
 40
2.0
 40
2.0
 40
2.0
 40
3.0
 40
3.0
 40
3.0
 40
4.0
 40
4.0
 40
4.0
 40
5.0
 40
5.0
 40
5.0
 40
6.0
 40
6.0
 40
6.0
 40
7.0
 40
7.0
 40
7.0
 40
8.0
 40
8.0
 40
8.0
 40
8.0
 10
16.45015190698906
 20
18.31473646991233
 30
0.0
 10
16.45015190698906
 20
18.31473646991233
 30
0.0
 10
16.45015190698906
 20
18.81043042743732
 30
0.0
 10
16.45015190698906
 20
18.81043042743732
 30
0.0
 10
16.45015190698906
 20
18.82570957162765
 30
0.0
 10
16.46264377720593
 20
18.83820822353301
 30
0.0
 10
16.47792970308475
 20
18.83820822353301
 30
0.0
 10
16.47792970308475
 20
18.83820822353301
 30
0.0
 10
16.97361687892124
 20
18.83820822353301
 30
0.0
 10
16.97361687892124
 20
18.83820822353301
 30
0.0
 10
16.98890280480007
 20
18.83820822353301
 30
0.0
 10
17.00139467501694
 20
18.82570957162765
 30
0.0
 10
17.00139467501694
 20
18.81043042743732
 30
0.0
 10
17.00139467501694
 20
18.81043042743732
 30
0.0
 10
17.00139467501694
 20
18.31473646991233
 30
0.0
 10
17.00139467501694
 20
18.31473646991233
 30
0.0
 10
17.00139467501694
 20
18.299457325722
 30
0.0
 10
16.98890280480007
 20
18.28695867381664
 30
0.0
 10
16.97361687892124
 20
18.28695867381664
 30
0.0
 10
16.97361687892124
 20
18.28695867381664
 30
0.0
 10
16.47792970308475
 20
18.28695867381664
 30
0.0
 10
16.47792970308475
 20
18.28695867381664
 30
0.0
 10
16.46264377720593
 20
18.28695867381664
 30
0.0
 10
16.45015190698906
 20
18.299457325722
 30
0.0
 10
16.45015190698906
 20
18.31473646991233
 30
0.0
  0
SPLINE
  5
6F
330
1F
100
AcDbEntity
  8
Layer 108
370
     0
100
AcDbSpline
210
0.0
220
0.0
230
1.0
 70
    11
 71
     3
 72
    29
 73
    25
 74
     0
 42
0.0000000001
 43
0.0000000001
 40
0.0
 40
0.0
 40
0.0
 40
0.0
 40
1.0
 40
1.0
 40
1.0
 40
2.0
 40
2.0
 40
2.0
 40
3.0
 40
3.0
 40
3.0
 40
4.0
 40
4.0
 40
4.0
 40
5.0
 40
5.0
 40
5.0
 40
6.0
 40
6.0
 40
6.0
 40
7.0
 40
7.0
 40
7.0
 40
8.0
 40
8.0
 40
8.0
 40
8.0
 10
17.2111251735656
 20
16.80084658269717
 30
0.0
 10
17.2111251735656
 20
16.78542502304834
 30
0.0
 10
17.19875537374174
 20
16.77306878660147
 30
0.0
 10
17.18334737746991
 20
16.77306878660147
 30
0.0
 10
17.18334737746991
 20
16.77306878660147
 30
0.0
 10
16.68778227202642
 20
16.77306878660147
 30
0.0
 10
16.68778227202642
 20
16.77306878660147
 30
0.0
 10
16.67237427575459
 20
16.77306878660147
 30
0.0
 10
16.66000447593073
 20
16.78542502304834
 30
0.0
 10
16.66000447593073
 20
16.80084658269717
 30
0.0
 10
16.66000447593073
 20
16.80084658269717
 30
0.0
 10
16.66000447593073
 20
17.29639812476366
 30
0.0
 10
16.66000447593073
 20
17.29639812476366
 30
0.0
 10
16.66000447593073
 20
17.31181968441248
 30
0.0
 10
16.67237427575459
 20
17.32417592085935
 30
0.0
 10
16.68778227202642
 20
17.32417592085935
 30
0.0
 10
16.68778227202642
 20
17.32417592085935
 30
0.0
 10
17.18334737746991
 20
17.32417592085935
 30
0.0
 10
17.18334737746991
 20
17.32417592085935
 30
0.0
 10
17.19875537374174
 20
17.32417592085935
 30
0.0
 10
17.2111251735656
 20
17.31181968441248
 30
0.0
 10
17.2111251735656
 20
17.29639812476366
 30
0.0
 10
17.2111251735656
 20
17.29639812476366
 30
0.0
 10
17.2111251735656
 20
16.80084658269717
 30
0.0
 10
17.2111251735656
 20
16.80084658269717
 30
0.0
  0
SPLINE
  5
70
330
1F
100
AcDbEntity
  8
Layer 108
370
     0
100
AcDbSpline
210
0.0
220
0.0
230
1.0
 70
    11
 71
     3
 72
    29
 73
    25
 74
     0
 42
0.0000000001
 43
0.0000000001
 40
0.0
 40
0.0
 40
0.0
 40
0.0
 40
1.0
 40
1.0
 40
1.0
 40
2.0
 40
2.0
 40
2.0
 40
3.0
 40
3.0
 40
3.0
 40
4.0
 40
4.0
 40
4.0
 40
5.0
 40
5.0
 40
5.0
 40
6.0
 40
6.0
 40
6.0
 40
7.0
 40
7.0
 40
7.0
 40
8.0
 40
8.0
 40
8.0
 40
8.0
 10
17.29361763247869
 20
17.55779152630475
 30
0.0
 10
17.29361763247869
 20
17.54236996665592
 30
0.0
 10
17.28126139603182
 20
17.53001373020906
 30
0.0
 10
17.26583983638299
 20
17.53001373020906
 30
0.0
 10
17.26583983638299
 20
17.53001373020906
 30
0.0
 10
16.7702882943165
 20
17.53001373020906
 30
0.0
 10
16.7702882943165
 20
17.53001373020906
 30
0.0
 10
16.75486673466768
 20
17.53001373020906
 30
0.0
 10
16.74251049822081
 20
17.54236996665592
 30
0.0
 10
16.74251049822081
 20
17.55779152630475
 30
0.0
 10
16.74251049822081
 20
17.55779152630475
 30
0.0
 10
16.74251049822081
 20
18.05334306837124
 30
0.0
 10
16.74251049822081
 20
18.05334306837124
 30
0.0
 10
16.74251049822081
 20
18.06876462802007
 30
0.0
 10
16.75486673466768
 20
18.08112086446693
 30
0.0
 10
16.7702882943165
 20
18.08112086446693
 30
0.0
 10
16.7702882943165
 20
18.08112086446693
 30
0.0
 10
17.26583983638299
 20
18.08112086446693
 30
0.0
 10
17.26583983638299
 20
18.08112086446693
 30
0.0
 10
17.28126139603182
 20
18.08112086446693
 30
0.0
 10
17.29361763247869
 20
18.06876462802007
 30
0.0
 10
17.29361763247869
 20
18.05334306837124
 30
0.0
 10
17.29361763247869
 20
18.05334306837124
 30
0.0
 10
17.29361763247869
 20
17.55779152630475
 30
0.0
 10
17.29361763247869
 20
17.55779152630475
 30
0.0
  0
ENDSEC
  0
SECTION
  2
OBJECTS
  0
DICTIONARY
  5
C
330
0
100
AcDbDictionary
281
     1
  3
ACAD_GROUP
350
D
  3
ACAD_LAYOUT
350
1A
  3
ACAD_MLINESTYLE
350
17
  3
ACAD_PLOTSETTINGS
350
19
  3
ACAD_PLOTSTYLENAME
350
E
  3
ACAD_TABLESTYLE
350
71
  3
ACAD_VISUALSTYLE
350
2A
  0
DICTIONARY
  5
D
102
{ACAD_REACTORS
330
C
102
}
330
C
100
AcDbDictionary
281
     1
  0
DICTIONARY
  5
1A
102
{ACAD_REACTORS
330
C
102
}
330
C
100
AcDbDictionary
281
     1
  3
Layout1
350
1E
  3
Layout2
350
26
  3
Model
350
22
  0
DICTIONARY
  5
17
102
{ACAD_REACTORS
330
C
102
}
330
C
100
AcDbDictionary
281
     1
  3
Standard
350
18
  0
DICTIONARY
  5
19
102
{ACAD_REACTORS
330
C
102
}
330
C
100
AcDbDictionary
281
     1
  0
ACDBDICTIONARYWDFLT
  5
E
102
{ACAD_REACTORS
330
C
102
}
330
C
100
AcDbDictionary
281
     1
  3
Normal
350
F
100
AcDbDictionaryWithDefault
340
F
  0
DICTIONARY
  5
71
102
{ACAD_REACTORS
330
C
102
}
330
C
100
AcDbDictionary
281
     1
  0
DICTIONARY
  5
2A
102
{ACAD_REACTORS
330
C
102
}
330
C
100
AcDbDictionary
281
     1
  3
2dWireframe
350
2F
  3
3D Hidden
350
31
  3
3dWireframe
350
30
  3
Basic
350
32
  3
Brighten
350
36
  3
ColorChange
350
3A
  3
Conceptual
350
34
  3
Dim
350
35
  3
Facepattern
350
39
  3
Flat
350
2B
  3
FlatWithEdges
350
2C
  3
Gouraud
350
2D
  3
GouraudWithEdges
350
2E
  3
Linepattern
350
38
  3
Realistic
350
33
  3
Thicken
350
37
  0
LAYOUT
  5
1E
102
{ACAD_REACTORS
330
1A
102
}
330
1A
100
AcDbPlotSettings
  1

  2
none_device
  4

  6

 40
0.0
 41
0.0
 42
0.0
 43
0.0
 44
0.0
 45
0.0
 46
0.0
 47
0.0
 48
0.0
 49
0.0
140
0.0
141
0.0
142
1.0
143
1.0
 70
   688
 72
     0
 73
     0
 74
     5
  7

 75
    16
 76
     0
 77
     2
 78
   300
147
1.0
148
0.0
149
0.0
100
AcDbLayout
  1
Layout1
 70
     1
 71
     1
 10
0.0
 20
0.0
 11
12.0
 21
9.0
 12
0.0
 22
0.0
 32
0.0
 14
1.000000000000000E+20
 24
1.000000000000000E+20
 34
1.000000000000000E+20
 15
-1.000000000000000E+20
 25
-1.000000000000000E+20
 35
-1.000000000000000E+20
146
0.0
 13
0.0
 23
0.0
 33
0.0
 16
1.0
 26
0.0
 36
0.0
 17
0.0
 27
1.0
 37
0.0
 76
     0
330
1B
  0
LAYOUT
  5
26
102
{ACAD_REACTORS
330
1A
102
}
330
1A
100
AcDbPlotSettings
  1

  2
none_device
  4

  6

 40
0.0
 41
0.0
 42
0.0
 43
0.0
 44
0.0
 45
0.0
 46
0.0
 47
0.0
 48
0.0
 49
0.0
140
0.0
141
0.0
142
1.0
143
1.0
 70
   688
 72
     0
 73
     0
 74
     5
  7

 75
    16
 76
     0
 77
     2
 78
   300
147
1.0
148
0.0
149
0.0
100
AcDbLayout
  1
Layout2
 70
     1
 71
     2
 10
0.0
 20
0.0
 11
0.0
 21
0.0
 12
0.0
 22
0.0
 32
0.0
 14
0.0
 24
0.0
 34
0.0
 15
0.0
 25
0.0
 35
0.0
146
0.0
 13
0.0
 23
0.0
 33
0.0
 16
1.0
 26
0.0
 36
0.0
 17
0.0
 27
1.0
 37
0.0
 76
     0
330
23
  0
LAYOUT
  5
22
102
{ACAD_REACTORS
330
1A
102
}
330
1A
100
AcDbPlotSettings
  1

  2
none_device
  4

  6

 40
0.0
 41
0.0
 42
0.0
 43
0.0
 44
0.0
 45
0.0
 46
0.0
 47
0.0
 48
0.0
 49
0.0
140
0.0
141
0.0
142
1.0
143
1.0
 70
  1712
 72
     0
 73
     0
 74
     0
  7

 75
     0
 76
     0
 77
     2
 78
   300
147
1.0
148
0.0
149
0.0
100
AcDbLayout
  1
Model
 70
     1
 71
     0
 10
0.0
 20
0.0
 11
12.0
 21
9.0
 12
0.0
 22
0.0
 32
0.0
 14
1.000000000000000E+20
 24
1.000000000000000E+20
 34
1.000000000000000E+20
 15
-1.000000000000000E+20
 25
-1.000000000000000E+20
 35
-1.000000000000000E+20
146
0.0
 13
0.0
 23
0.0
 33
0.0
 16
1.0
 26
0.0
 36
0.0
 17
0.0
 27
1.0
 37
0.0
 76
     0
330
1F
331
29
  0
MLINESTYLE
  5
18
102
{ACAD_REACTORS
330
17
102
}
330
17
100
AcDbMlineStyle
  2
Standard
 70
     0
  3

 62
   256
 51
90.0
 52
90.0
 71
     2
 49
0.5
 62
   256
  6
BYLAYER
 49
-0.5
 62
   256
  6
BYLAYER
  0
ACDBPLACEHOLDER
  5
F
102
{ACAD_REACTORS
330
E
102
}
330
E
  0
VISUALSTYLE
  5
2F
102
{ACAD_REACTORS
330
2A
102
}
330
2A
100
AcDbVisualStyle
  2
2dWireframe
 70
     4
 71
     0
 72
     2
 73
     0
 90
        0
 40
-0.6
 41
-30.0
 62
     5
 63
     7
421
 16777215
 74
     1
 91
        4
 64
     7
 65
   257
 75
     1
175
     1
 42
1.0
 92
        0
 66
   257
 43
1.0
 76
     1
 77
     6
 78
     2
 67
     7
 79
     5
170
     0
171
     0
290
     0
174
     0
 93
        1
 44
0.0
173
     0
291
     0
 45
0.0
1001
ACAD
1000
AcDbSavedByObjectVersion
1070
     0
  0
VISUALSTYLE
  5
31
102
{ACAD_REACTORS
330
2A
102
}
330
2A
100
AcDbVisualStyle
  2
3D Hidden
 70
     6
 71
     1
 72
     2
 73
     2
 90
        0
 40
-0.6
 41
-30.0
 62
     5
 63
     7
421
 16777215
 74
     2
 91
        2
 64
     7
 65
   257
 75
     2
175
     1
 42
40.0
 92
        0
 66
   257
 43
1.0
 76
     1
 77
     6
 78
     2
 67
     7
 79
     3
170
     0
171
     0
290
     0
174
     0
 93
        1
 44
0.0
173
     0
291
     0
 45
0.0
1001
ACAD
1000
AcDbSavedByObjectVersion
1070
     0
  0
VISUALSTYLE
  5
30
102
{ACAD_REACTORS
330
2A
102
}
330
2A
100
AcDbVisualStyle
  2
3dWireframe
 70
     5
 71
     0
 72
     2
 73
     0
 90
        0
 40
-0.6
 41
-30.0
 62
     5
 63
     7
421
 16777215
 74
     1
 91
        4
 64
     7
 65
   257
 75
     1
175
     1
 42
1.0
 92
        0
 66
   257
 43
1.0
 76
     1
 77
     6
 78
     2
 67
     7
 79
     5
170
     0
171
     0
290
     0
174
     0
 93
        1
 44
0.0
173
     0
291
     0
 45
0.0
1001
ACAD
1000
AcDbSavedByObjectVersion
1070
     0
  0
VISUALSTYLE
  5
32
102
{ACAD_REACTORS
330
2A
102
}
330
2A
100
AcDbVisualStyle
  2
Basic
 70
     7
 71
     1
 72
     0
 73
     1
 90
        0
 40
-0.6
 41
-30.0
 62
     5
 63
     7
421
 16777215
 74
     0
 91
        4
 64
     7
 65
   257
 75
     1
175
     1
 42
1.0
 92
        8
 66
     7
 43
1.0
 76
     1
 77
     6
 78
     2
 67
     7
 79
     5
170
     0
171
     0
290
     0
174
     0
 93
        1
 44
0.0
173
     0
291
     1
 45
0.0
1001
ACAD
1000
AcDbSavedByObjectVersion
1070
     0
  0
VISUALSTYLE
  5
36
102
{ACAD_REACTORS
330
2A
102
}
330
2A
100
AcDbVisualStyle
  2
Brighten
 70
    12
 71
     2
 72
     2
 73
     0
 90
        0
 40
-0.6
 41
-30.0
 62
     5
 63
     7
421
 16777215
 74
     1
 91
        4
 64
     7
 65
   257
 75
     1
175
     1
 42
1.0
 92
        8
 66
     7
 43
1.0
 76
     1
 77
     6
 78
     2
 67
     7
 79
     5
170
     0
171
     0
290
     0
174
     0
 93
        1
 44
50.0
173
     0
291
     1
 45
0.0
1001
ACAD
1000
AcDbSavedByObjectVersion
1070
     0
  0
VISUALSTYLE
  5
3A
102
{ACAD_REACTORS
330
2A
102
}
330
2A
100
AcDbVisualStyle
  2
ColorChange
 70
    16
 71
     2
 72
     2
 73
     3
 90
        0
 40
-0.6
 41
-30.0
 62
     5
 63
     8
421
  8421504
 74
     1
 91
        4
 64
     7
 65
   257
 75
     1
175
     1
 42
1.0
 92
        8
 66
     8
424
  8421504
 43
1.0
 76
     1
 77
     6
 78
     2
 67
     7
 79
     5
170
     0
171
     0
290
     0
174
     0
 93
        1
 44
0.0
173
     0
291
     1
 45
0.0
1001
ACAD
1000
AcDbSavedByObjectVersion
1070
     0
  0
VISUALSTYLE
  5
34
102
{ACAD_REACTORS
330
2A
102
}
330
2A
100
AcDbVisualStyle
  2
Conceptual
 70
     9
 71
     3
 72
     2
 73
     0
 90
        0
 40
-0.6
 41
-30.0
 62
     5
 63
     7
421
 16777215
 74
     2
 91
        2
 64
     7
 65
   257
 75
     1
175
     1
 42
40.0
 92
        8
 66
     7
 43
1.0
 76
     1
 77
     6
 78
     2
 67
     7
 79
     3
170
     0
171
     0
290
     0
174
     0
 93
        1
 44
0.0
173
     0
291
     0
 45
0.0
1001
ACAD
1000
AcDbSavedByObjectVersion
1070
     0
  0
VISUALSTYLE
  5
35
102
{ACAD_REACTORS
330
2A
102
}
330
2A
100
AcDbVisualStyle
  2
Dim
 70
    11
 71
     2
 72
     2
 73
     0
 90
        0
 40
-0.6
 41
-30.0
 62
     5
 63
     7
421
 16777215
 74
     1
 91
        4
 64
     7
 65
   257
 75
     1
175
     1
 42
1.0
 92
        8
 66
     7
 43
1.0
 76
     1
 77
     6
 78
     2
 67
     7
 79
     5
170
     0
171
     0
290
     0
174
     0
 93
        1
 44
-50.0
173
     0
291
     1
 45
0.0
1001
ACAD
1000
AcDbSavedByObjectVersion
1070
     0
  0
VISUALSTYLE
  5
39
102
{ACAD_REACTORS
330
2A
102
}
330
2A
100
AcDbVisualStyle
  2
Facepattern
 70
    15
 71
     2
 72
     2
 73
     0
 90
        0
 40
-0.6
 41
-30.0
 62
     5
 63
     7
421
 16777215
 74
     1
 91
        4
 64
     7
 65
   257
 75
     1
175
     1
 42
1.0
 92
        8
 66
     7
 43
1.0
 76
     1
 77
     6
 78
     2
 67
     7
 79
     5
170
     0
171
     0
290
     0
174
     0
 93
        1
 44
0.0
173
     0
291
     1
 45
0.0
1001
ACAD
1000
AcDbSavedByObjectVersion
1070
     0
  0
VISUALSTYLE
  5
2B
102
{ACAD_REACTORS
330
2A
102
}
330
2A
100
AcDbVisualStyle
  2
Flat
 70
     0
 71
     2
 72
     1
 73
     1
 90
        2
 40
-0.6
 41
30.0
 62
     5
 63
     7
421
 16777215
 74
     0
 91
        4
 64
     7
 65
   257
 75
     1
175
     1
 42
1.0
 92
        8
 66
     7
 43
1.0
 76
     1
 77
     6
 78
     2
 67
     7
 79
     5
170
     0
171
     0
290
     0
174
     0
 93
       13
 44
0.0
173
     0
291
     1
 45
0.0
1001
ACAD
1000
AcDbSavedByObjectVersion
1070
     0
  0
VISUALSTYLE
  5
2C
102
{ACAD_REACTORS
330
2A
102
}
330
2A
100
AcDbVisualStyle
  2
FlatWithEdges
 70
     1
 71
     2
 72
     1
 73
     1
 90
        2
 40
-0.6
 41
30.0
 62
     5
 63
     7
421
 16777215
 74
     1
 91
        4
 64
     7
 65
   257
 75
     1
175
     1
 42
1.0
 92
        0
 66
   257
 43
1.0
 76
     1
 77
     6
 78
     2
 67
     7
 79
     5
170
     0
171
     0
290
     0
174
     0
 93
       13
 44
0.0
173
     0
291
     1
 45
0.0
1001
ACAD
1000
AcDbSavedByObjectVersion
1070
     0
  0
VISUALSTYLE
  5
2D
102
{ACAD_REACTORS
330
2A
102
}
330
2A
100
AcDbVisualStyle
  2
Gouraud
 70
     2
 71
     2
 72
     2
 73
     1
 90
        2
 40
-0.6
 41
30.0
 62
     5
 63
     7
421
 16777215
 74
     0
 91
        4
 64
     7
 65
   257
 75
     1
175
     1
 42
1.0
 92
        0
 66
     7
 43
1.0
 76
     1
 77
     6
 78
     2
 67
     7
 79
     5
170
     0
171
     0
290
     0
174
     0
 93
       13
 44
0.0
173
     0
291
     1
 45
0.0
1001
ACAD
1000
AcDbSavedByObjectVersion
1070
     0
  0
VISUALSTYLE
  5
2E
102
{ACAD_REACTORS
330
2A
102
}
330
2A
100
AcDbVisualStyle
  2
GouraudWithEdges
 70
     3
 71
     2
 72
     2
 73
     1
 90
        2
 40
-0.6
 41
30.0
 62
     5
 63
     7
421
 16777215
 74
     1
 91
        4
 64
     7
 65
   257
 75
     1
175
     1
 42
1.0
 92
        0
 66
   257
 43
1.0
 76
     1
 77
     6
 78
     2
 67
     7
 79
     5
170
     0
171
     0
290
     0
174
     0
 93
       13
 44
0.0
173
     0
291
     1
 45
0.0
1001
ACAD
1000
AcDbSavedByObjectVersion
1070
     0
  0
VISUALSTYLE
  5
38
102
{ACAD_REACTORS
330
2A
102
}
330
2A
100
AcDbVisualStyle
  2
Linepattern
 70
    14
 71
     2
 72
     2
 73
     0
 90
        0
 40
-0.6
 41
-30.0
 62
     5
 63
     7
421
 16777215
 74
     1
 91
        4
 64
     7
 65
   257
 75
     7
175
     7
 42
1.0
 92
        8
 66
     7
 43
1.0
 76
     1
 77
     6
 78
     2
 67
     7
 79
     5
170
     0
171
     0
290
     0
174
     0
 93
        1
 44
0.0
173
     0
291
     1
 45
0.0
1001
ACAD
1000
AcDbSavedByObjectVersion
1070
     0
  0
VISUALSTYLE
  5
33
102
{ACAD_REACTORS
330
2A
102
}
330
2A
100
AcDbVisualStyle
  2
Realistic
 70
     8
 71
     2
 72
     2
 73
     0
 90
        0
 40
-0.6
 41
-30.0
 62
     5
 63
     7
421
 16777215
 74
     1
 91
        0
 64
     7
 65
   257
 75
     1
175
     1
 42
1.0
 92
        8
 66
     8
424
  7895160
 43
1.0
 76
     1
 77
     6
 78
     2
 67
     7
 79
     5
170
     0
171
     0
290
     0
174
     0
 93
       13
 44
0.0
173
     0
291
     0
 45
0.0
1001
ACAD
1000
AcDbSavedByObjectVersion
1070
     0
  0
VISUALSTYLE
  5
37
102
{ACAD_REACTORS
330
2A
102
}
330
2A
100
AcDbVisualStyle
  2
Thicken
 70
    13
 71
     2
 72
     2
 73
     0
 90
        0
 40
-0.6
 41
-30.0
 62
     5
 63
     7
421
 16777215
 74
     1
 91
        4
 64
     7
 65
   257
 75
     1
175
     1
 42
1.0
 92
       12
 66
     7
 43
1.0
 76
     1
 77
     6
 78
     2
 67
     7
 79
     5
170
     0
171
     0
290
     0
174
     0
 93
        1
 44
0.0
173
     0
291
     1
 45
0.0
1001
ACAD
1000
AcDbSavedByObjectVersion
1070
     0
  0
ENDSEC
  0
EOF
